<svg id="e0645b76-47b8-48f5-8d01-c2f128dd6b47" data-name="Layer 1" xmlns="http://www.w3.org/2000/svg" width="290.4mm" height="479.206" viewBox="0 0 823.19 359.41"><path fill="#1d1d1b" d="M226.77 128.1l-37.2-37.2-85.31 85.31 8.31 7.59 51.65-51.66 12.59 12.58 12.76-12.76 12.76 12.76 12.58-12.58L226.77 144v-15.9z"/><path fill="#1d1d1b" d="M161.02 230.94l-95.47-95.47-37.2 37.21v15.75L41.78 175l11.94 11.94 11.83-11.83 11.83 11.83L89.33 175l55.94 55.94h15.75z"/><path d="M155.91 439.37v255.12H411V439.37zm240.94 240.94H170.08V453.54h226.77zm325.98-240.94v255.12H978V439.37zm240.95 240.94H737V453.54h226.78zM439.37 439.37v255.12h255.12V439.37zm241 240.94H453.54V453.54h226.78z" transform="translate(-155.91 -439.37)" fill="#1d1d1b"/><path fill="#1d1d1b" d="M311.81 28.35h28.35V56.7h-28.35zm0 42.52h28.35v28.35h-28.35zm0 42.52h28.35v28.35h-28.35zm0 42.52h28.35v28.35h-28.35zm0 42.52h28.35v28.35h-28.35zM481.89 28.35h28.35V56.7h-28.35zm0 42.52h28.35v28.35h-28.35zm0 42.52h28.35v28.35h-28.35zm0 42.52h28.35v28.35h-28.35zm0 42.52h28.35v28.35h-28.35z"/><path d="M914.17 507.32H772.44v99.22h70.87v14.17h-21.26v14.17h56.69v-14.17h-21.26v-14.17h70.87v-99.22zm0 85H786.61V521.5h127.56zM157.33 732.18h29.18c8.23 0 14.68 2.44 18.89 6.55a19.82 19.82 0 015.43 14.13v.14c0 10.76-6.46 17.21-15.62 19.83l17.68 24.79h-13.57l-16.09-22.82h-14.4v22.82h-11.5zm28.34 32.46c8.23 0 13.47-4.3 13.47-10.94v-.19c0-7-5-10.85-13.57-10.85h-16.74v22zm58.65-32.46h11.51v65.48h-11.51zm44.81 32.93v-.19c0-18.61 13.93-33.86 33.76-33.86 12.07 0 19.37 4.21 25.63 10.2l-7.39 8.51c-5.24-4.87-10.85-8.14-18.33-8.14-12.53 0-21.61 10.29-21.61 23.1v.19c0 12.82 9.08 23.29 21.61 23.29 8 0 13.19-3.27 18.8-8.51l7.39 7.48c-6.83 7.11-14.31 11.6-26.56 11.6-19.09 0-33.3-14.87-33.3-33.67zm90.64-32.93h11.5v32.93l31.15-32.93h14.13l-27.22 28.16 28.43 37.32h-13.94l-22.35-29.46-10.2 10.47v19h-11.5zm102.71 39.66l-26-39.66H470l18.33 29 18.52-29h13.19l-26 39.38v26.1h-11.6zm113.19-39.66h48.73v10.48h-37.23v17.87h33V771h-33v26.66h-11.5zm76.61 32.93v-.19c0-18.42 14.21-33.86 34.33-33.86s34.14 15.25 34.14 33.67v.19c0 18.43-14.22 33.86-34.33 33.86s-34.14-15.24-34.14-33.67zm56.4 0v-.19c0-12.72-9.26-23.29-22.26-23.29s-22.08 10.38-22.08 23.1v.19c0 12.72 9.26 23.29 22.27 23.29s22.07-10.38 22.07-23.1zm58.37 6.73l-26-39.66h13.56l18.34 29 18.52-29h13.18l-26 39.38v26.1h-11.6zm66.42-39.66H865v55h34.4v10.48h-45.93zm76.61 0h48.55v10.29h-37v17h32.84v10.29h-32.89v17.58h37.51v10.29h-49z" transform="translate(-155.91 -439.37)" fill="#1d1d1b"/></svg>