<svg id="Layer_1" data-name="Layer 1" xmlns="http://www.w3.org/2000/svg" viewBox="0 0 241.28 321.35"><defs><style>.cls-1{fill:#ecb2d2}.cls-2{fill:#bcd8dd}.cls-3{fill:#1d1d1b}.cls-4,.cls-6{fill:none;stroke:#fff;stroke-miterlimit:10}.cls-4{stroke-width:11.62px}.cls-5{fill:#e1d1c4}.cls-6{stroke-width:12.91px}.cls-7{fill:#575756}</style></defs><path class="cls-1" d="M192.31 77.35l4.95-.06-2.46-3.71-2.49 3.77z"/><path class="cls-1" d="M335.77 394.79c3.6 0 12 .07 22.53.09l4.21-11.14-27.32.33c-2.85 6.95-3.67 10.68.58 10.72m22.17-60.98l-1.61 3.42 4.05-.05c-.84-1.17-1.71-2.38-2.44-3.37" transform="translate(-177.57 -259.72)"/><path class="cls-1" d="M184.96 77.44l5.11-.06-2.48-3.81-2.63 3.87zm14.65-.18l4.95-.06-2.54-3.64-2.41 3.7z"/><path class="cls-1" d="M370.53 306.92c-.71 1.56-1.91 4.15-3.44 7.43l16.73-.2c-1.89-4.19-3.5-7.76-4.83-10.38-.67-1.59-1.36-3.17-2.05-4.74 1.11-2.67 2.28-5.31 3.62-7.88.89-1.68-1.66-3.18-2.54-1.49-1 1.86-1.87 3.77-2.71 5.7-.49-1.1-1-2.2-1.48-3.29a8.32 8.32 0 00-1.4-2.69c-1.42-1.26-3.51.83-2.09 2.09-.37-.33.15.37.26.61.24.57.53 1.14.79 1.7.79 1.72 1.55 3.44 2.32 5.17l.05.11-2.35 5.87-.88 2M364.39 331a1 1 0 011.59 0l2.78 4.26 2.82-4.26a1 1 0 011.59 0l2.83 4.3 2.77-4.26a1 1 0 01.79-.43 1 1 0 01.8.41l2.65 3.79 2.55-3.78a.92.92 0 01.77-.42 1 1 0 01.79.39l2.78 3.79 1.94-3.15c-1.23-2.63-2.31-4.95-3.18-6.84l-.45-1-25.71.31c-1.15 2.46-2.37 5.05-3.63 7.72.61.79 1.43 1.91 2.57 3.52zm29.84 5.77c-.5-1-1-2.07-1.44-3.06l-1.89 3.1zm-9.47-20.52l-18.67.22c-.8 1.72-1.68 3.58-2.6 5.54l23.75-.29c-.87-1.9-1.7-3.73-2.48-5.47" transform="translate(-177.57 -259.72)"/><path class="cls-1" d="M206.32 77.18l5.13-.06-2.65-3.61-2.48 3.67z"/><path class="cls-1" d="M399.62 362.35a33.54 33.54 0 00-2.55-4 .66.66 0 01-.14-.26.69.69 0 01.06-.31 31.7 31.7 0 012-4.21l.3-.2a30.64 30.64 0 012.26 4.28.9.9 0 01.13.42 1.07 1.07 0 01-.14.45c-.63 1.28-1.27 2.55-1.91 3.84m-5.75-3.84l-1.88 3.83a34.84 34.84 0 00-2.55-4 .66.66 0 01-.14-.26.69.69 0 01.06-.31 33 33 0 012-4.21l.3-.2a33 33 0 012.27 4.28 1 1 0 01.12.42 1.07 1.07 0 01-.14.45m-7.8 0l-1.91 3.84a34.84 34.84 0 00-2.55-4 .66.66 0 01-.14-.26.57.57 0 01.06-.31 31.7 31.7 0 012-4.21l.29-.2a30.7 30.7 0 012.27 4.28.9.9 0 01.13.42 1.07 1.07 0 01-.14.45m-16.85 0c-.64 1.28-1.28 2.55-1.91 3.84a33.62 33.62 0 00-2.56-4 .64.64 0 01-.13-.26.57.57 0 01.06-.31 31.7 31.7 0 012-4.21l.29-.2a30.7 30.7 0 012.27 4.28 1 1 0 01.13.42 1.07 1.07 0 01-.14.45m-7.66 0c-.64 1.28-1.28 2.55-1.91 3.84a33.62 33.62 0 00-2.56-4 .53.53 0 01-.13-.26.57.57 0 01.06-.31 32.94 32.94 0 012-4.21l.3-.2a30.7 30.7 0 012.27 4.28 1 1 0 01.13.42 1.07 1.07 0 01-.14.45m-7.81 0c-.63 1.28-1.27 2.55-1.9 3.84a33.62 33.62 0 00-2.56-4 .53.53 0 01-.13-.26.57.57 0 01.06-.31 31.64 31.64 0 012-4.21l.3-.2a30.7 30.7 0 012.27 4.28 1 1 0 01.13.42 1 1 0 01-.15.45m41.46-19.64l-39.87.48c-6.33 13.51-12.79 27.41-15.61 34.11-.05.1-.08.19-.12.28l26.81-.33 9.42-24.92 9.33 24.69 26.06-.31c-4.64-9.82-10.92-23.13-16-34M336.08 382l27.24-.33 2.29-6.09-26.91.33c-.94 2.22-1.83 4.24-2.62 6.09m76.14-7l-26.26.32 2.28 6 26.83-.33-2.85-6m5.17 10.9c-.28-.61-.74-1.57-1.33-2.81l-27 .33 4.36 11.53c12.55.07 19.23.2 21.85-.1 3.34-.4 5-2.92 2.15-8.95" transform="translate(-177.57 -259.72)"/><path class="cls-2" d="M37.06 77.35l4.95-.06-2.46-3.71-2.49 3.77z"/><path class="cls-2" d="M180.53 394.79c3.59 0 12 .07 22.53.09l4.21-11.14-27.32.33c-2.86 6.95-3.67 10.68.58 10.72m22.16-60.98c-.53 1.13-1.06 2.28-1.6 3.42l4-.05c-.83-1.17-1.7-2.38-2.44-3.37" transform="translate(-177.57 -259.72)"/><path class="cls-2" d="M29.71 77.44l5.11-.06-2.47-3.81-2.64 3.87zm14.66-.18l4.95-.06-2.55-3.64-2.4 3.7z"/><path class="cls-2" d="M215.28 306.92c-.7 1.56-1.9 4.15-3.44 7.43l16.73-.2c-1.89-4.19-3.5-7.76-4.82-10.38-.67-1.59-1.36-3.17-2.05-4.74 1.1-2.67 2.27-5.31 3.62-7.88.88-1.68-1.67-3.18-2.55-1.49-1 1.86-1.87 3.77-2.71 5.7-.49-1.1-1-2.2-1.47-3.29a8.34 8.34 0 00-1.41-2.69c-1.42-1.26-3.51.83-2.09 2.09-.37-.33.15.37.26.61.25.57.53 1.14.79 1.7q1.19 2.58 2.32 5.17a1.17 1.17 0 010 .11q-1.19 2.94-2.35 5.87l-.88 2M209.15 331a.92.92 0 01.8-.42.94.94 0 01.79.43l2.77 4.26 2.82-4.26a1 1 0 011.59 0l2.83 4.26 2.76-4.26a1 1 0 01.79-.43 1 1 0 01.8.41l2.65 3.79 2.55-3.78a.92.92 0 01.77-.42 1 1 0 01.79.39l2.78 3.79 1.94-3.15c-1.22-2.63-2.31-4.95-3.18-6.84l-.45-1-25.71.31-3.62 7.72c.6.79 1.42 1.91 2.57 3.52zm29.85 5.77l-1.43-3.06-1.9 3.1zm-9.48-20.52l-18.68.22c-.8 1.72-1.67 3.58-2.6 5.54l23.75-.29c-.86-1.9-1.69-3.73-2.47-5.47" transform="translate(-177.57 -259.72)"/><path class="cls-2" d="M51.08 77.18l5.12-.06-2.65-3.61-2.47 3.67z"/><path class="cls-2" d="M244.38 362.35a34.92 34.92 0 00-2.56-4 .66.66 0 01-.14-.26.85.85 0 01.06-.31 34.42 34.42 0 012-4.21l.3-.2a30.7 30.7 0 012.27 4.28 1 1 0 01.13.42 1.07 1.07 0 01-.14.45c-.64 1.28-1.28 2.55-1.91 3.84m-5.76-3.84c-.63 1.28-1.27 2.55-1.91 3.84a32.33 32.33 0 00-2.55-4 .53.53 0 01-.13-.26.57.57 0 01.06-.31 31.64 31.64 0 012-4.21l.3-.2a30.7 30.7 0 012.27 4.28 1 1 0 01.13.42 1.09 1.09 0 01-.15.45m-7.8 0c-.63 1.28-1.27 2.55-1.91 3.84a33.54 33.54 0 00-2.55-4 .53.53 0 01-.13-.26.67.67 0 01.05-.31 33 33 0 012-4.21l.3-.2a30.7 30.7 0 012.27 4.28 1 1 0 01.13.42 1.09 1.09 0 01-.15.45m-16.85 0l-1.91 3.84a33.54 33.54 0 00-2.55-4 .66.66 0 01-.14-.26.69.69 0 01.06-.31 33 33 0 012-4.21l.3-.2a33 33 0 012.27 4.28 1 1 0 01.12.42 1.07 1.07 0 01-.14.45m-7.66 0l-1.91 3.84a34.84 34.84 0 00-2.55-4 .66.66 0 01-.14-.26.57.57 0 01.06-.31 31.7 31.7 0 012-4.21l.3-.2a30.64 30.64 0 012.26 4.28.9.9 0 01.13.42 1.07 1.07 0 01-.14.45m-7.8 0l-1.91 3.84a33.62 33.62 0 00-2.56-4 .64.64 0 01-.13-.26.57.57 0 01.06-.31 31.7 31.7 0 012-4.21l.3-.2a31.74 31.74 0 012.26 4.28.9.9 0 01.13.42 1.07 1.07 0 01-.14.45m41.42-19.7l-39.87.48c-6.33 13.51-12.78 27.41-15.61 34.11l-.12.28 26.81-.33 9.42-24.92 9.33 24.69 26.06-.31c-4.64-9.82-10.92-23.13-16-34M180.84 382l27.23-.33 2.3-6.09-26.91.33c-1 2.22-1.84 4.24-2.62 6.09m76.16-7l-26.25.32 2.28 6 26.82-.33L257 375m5.15 10.89c-.29-.61-.75-1.57-1.33-2.81l-27 .33 4.36 11.53c12.54.07 19.23.2 21.85-.1 3.33-.4 5-2.92 2.15-8.95" transform="translate(-177.57 -259.72)"/><path class="cls-3" d="M111.53 79.5l7.56-.09-3.75-5.68-3.81 5.77z"/><path class="cls-4" d="M111.53 79.5l7.56-.09-3.75-5.68-3.81 5.77z"/><path class="cls-3" d="M236.9 427.55c5.51.05 18.42.11 34.48.15l6.44-17.06-41.81.51c-4.37 10.64-5.61 16.35.89 16.4" transform="translate(-177.57 -259.72)"/><path class="cls-4" d="M236.9 427.55c5.51.05 18.42.11 34.48.15l6.44-17.06-41.81.51c-4.37 10.64-5.61 16.35.89 16.4z" transform="translate(-177.57 -259.72)"/><path class="cls-3" d="M270.82 334.24l-2.45 5.23 6.18-.07c-1.28-1.8-2.61-3.65-3.73-5.16" transform="translate(-177.57 -259.72)"/><path class="cls-4" d="M270.82 334.24l-2.45 5.23 6.18-.07c-1.28-1.8-2.61-3.65-3.73-5.16z" transform="translate(-177.57 -259.72)"/><path class="cls-3" d="M100.28 79.64l7.82-.1-3.79-5.82-4.03 5.92z"/><path class="cls-4" d="M100.28 79.64l7.82-.1-3.79-5.82-4.03 5.92z"/><path class="cls-3" d="M122.7 79.36l7.58-.09-3.89-5.58-3.69 5.67z"/><path class="cls-4" d="M122.7 79.36l7.58-.09-3.89-5.58-3.69 5.67z"/><path class="cls-3" d="M290.09 293.07c-1.08 2.39-2.92 6.35-5.27 11.38l25.61-.31c-2.89-6.42-5.36-11.86-7.39-15.89-1-2.42-2.08-4.83-3.14-7.24 1.7-4.09 3.49-8.14 5.55-12.07 1.35-2.57-2.55-4.86-3.9-2.28-1.5 2.86-2.86 5.78-4.14 8.73-.75-1.68-1.49-3.37-2.26-5-.57-1.22-1.1-3.17-2.15-4.11-2.17-1.92-5.38 1.26-3.2 3.19-.57-.51.22.57.39.94.38.88.81 1.73 1.21 2.6 1.21 2.63 2.38 5.27 3.55 7.91a1.42 1.42 0 01.08.18c-1.22 3-2.4 6-3.6 9-.42 1-.87 2-1.34 3" transform="translate(-177.57 -259.72)"/><path class="cls-4" d="M290.09 293.07c-1.08 2.39-2.92 6.35-5.27 11.38l25.61-.31c-2.89-6.42-5.36-11.86-7.39-15.89-1-2.42-2.08-4.83-3.14-7.24 1.7-4.09 3.49-8.14 5.55-12.07 1.35-2.57-2.55-4.86-3.9-2.28-1.5 2.86-2.86 5.78-4.14 8.73-.75-1.68-1.49-3.37-2.26-5-.57-1.22-1.1-3.17-2.15-4.11-2.17-1.92-5.38 1.26-3.2 3.19-.57-.51.22.57.39.94.38.88.81 1.73 1.21 2.6 1.21 2.63 2.38 5.27 3.55 7.91a1.42 1.42 0 01.08.18c-1.22 3-2.4 6-3.6 9-.43.9-.87 1.9-1.34 2.97z" transform="translate(-177.57 -259.72)"/><path class="cls-3" d="M280.7 330a1.44 1.44 0 011.22-.64 1.5 1.5 0 011.22.67l4.24 6.52 4.31-6.53a1.51 1.51 0 012.44 0l4.32 6.53 4.24-6.52a1.45 1.45 0 012.42 0l4.06 5.81 3.9-5.79a1.47 1.47 0 011.19-.65 1.55 1.55 0 011.2.6l4.26 5.8 3-4.82c-1.87-4-3.53-7.57-4.86-10.47l-.69-1.49-39.34.48-5.56 11.8c.93 1.2 2.18 2.92 3.94 5.39z" transform="translate(-177.57 -259.72)"/><path class="cls-4" d="M280.7 330a1.44 1.44 0 011.22-.64 1.5 1.5 0 011.22.67l4.24 6.52 4.31-6.53a1.51 1.51 0 012.44 0l4.32 6.53 4.24-6.52a1.45 1.45 0 012.42 0l4.06 5.81 3.9-5.79a1.47 1.47 0 011.19-.65 1.55 1.55 0 011.2.6l4.26 5.8 3-4.82c-1.87-4-3.53-7.57-4.86-10.47l-.69-1.49-39.34.48-5.56 11.8c.93 1.2 2.18 2.92 3.94 5.39z" transform="translate(-177.57 -259.72)"/><path class="cls-3" d="M326.36 338.76q-1.14-2.4-2.19-4.67l-2.91 4.74z" transform="translate(-177.57 -259.72)"/><path class="cls-4" d="M326.36 338.76q-1.14-2.4-2.19-4.67l-2.91 4.74z" transform="translate(-177.57 -259.72)"/><path class="cls-3" d="M311.87 307.35l-28.57.35-4 8.48 36.35-.44q-2-4.38-3.79-8.39" transform="translate(-177.57 -259.72)"/><path class="cls-4" d="M311.87 307.35l-28.57.35-4 8.48 36.35-.44q-1.97-4.38-3.78-8.39z" transform="translate(-177.57 -259.72)"/><path class="cls-3" d="M132.98 79.24l7.84-.1-4.06-5.52-3.78 5.62z"/><path class="cls-4" d="M132.98 79.24l7.84-.1-4.06-5.52-3.78 5.62z"/><path class="cls-3" d="M334.61 377.9a51.5 51.5 0 00-3.9-6.12.82.82 0 01-.21-.4.86.86 0 01.09-.47 49.15 49.15 0 013-6.44l.46-.32a48.2 48.2 0 013.47 6.55 1.52 1.52 0 01.19.65 1.68 1.68 0 01-.21.68c-1 2-2 3.92-2.93 5.87m-8.8-5.87c-1 2-1.95 3.92-2.92 5.87a51.58 51.58 0 00-3.91-6.12 1 1 0 01-.21-.4 1 1 0 01.1-.47 47.9 47.9 0 013-6.44l.45-.32a48.26 48.26 0 013.48 6.55 1.68 1.68 0 01.19.65 1.56 1.56 0 01-.22.68m-11.94 0c-1 2-1.95 3.92-2.92 5.87a51.58 51.58 0 00-3.91-6.12 1 1 0 01-.21-.4 1 1 0 01.1-.47 47.9 47.9 0 013-6.44l.45-.32a48.26 48.26 0 013.48 6.55 1.68 1.68 0 01.19.65 1.56 1.56 0 01-.22.68m-25.79 0c-1 2-1.95 3.92-2.92 5.87a51.58 51.58 0 00-3.91-6.12 1 1 0 01-.21-.4 1 1 0 01.1-.47 47.9 47.9 0 013-6.44l.45-.32a47.11 47.11 0 013.47 6.55 1.54 1.54 0 01.2.65 1.56 1.56 0 01-.22.68m-11.72 0c-1 2-1.95 3.92-2.93 5.87a51.5 51.5 0 00-3.9-6.12.91.91 0 01-.21-.4.86.86 0 01.09-.47 49.15 49.15 0 013-6.44l.46-.32a49.34 49.34 0 013.47 6.55 1.54 1.54 0 01.2.65 1.7 1.7 0 01-.22.68m-11.94 0c-1 2-1.95 3.92-2.93 5.87a51.5 51.5 0 00-3.9-6.12.91.91 0 01-.21-.4.86.86 0 01.09-.47 49.15 49.15 0 013-6.44l.46-.32a48.2 48.2 0 013.47 6.55 1.54 1.54 0 01.2.65 1.56 1.56 0 01-.22.68M327.86 342l-61 .75c-9.69 20.67-19.57 41.93-23.89 52.2l-.18.43 41-.5 14.41-38.15 14.29 37.79 39.88-.48c-7.1-15-16.72-35.4-24.52-52" transform="translate(-177.57 -259.72)"/><path class="cls-4" d="M334.61 377.9a51.5 51.5 0 00-3.9-6.12.82.82 0 01-.21-.4.86.86 0 01.09-.47 49.15 49.15 0 013-6.44l.46-.32a48.2 48.2 0 013.47 6.55 1.52 1.52 0 01.19.65 1.68 1.68 0 01-.21.68c-.94 1.97-1.91 3.97-2.89 5.87zm-8.8-5.87c-1 2-1.95 3.92-2.92 5.87a51.58 51.58 0 00-3.91-6.12 1 1 0 01-.21-.4 1 1 0 01.1-.47 47.9 47.9 0 013-6.44l.45-.32a48.26 48.26 0 013.48 6.55 1.68 1.68 0 01.19.65 1.56 1.56 0 01-.18.65zm-11.94 0c-1 2-1.95 3.92-2.92 5.87a51.58 51.58 0 00-3.91-6.12 1 1 0 01-.21-.4 1 1 0 01.1-.47 47.9 47.9 0 013-6.44l.45-.32a48.26 48.26 0 013.48 6.55 1.68 1.68 0 01.19.65 1.56 1.56 0 01-.18.65zm-25.79 0c-1 2-1.95 3.92-2.92 5.87a51.58 51.58 0 00-3.91-6.12 1 1 0 01-.21-.4 1 1 0 01.1-.47 47.9 47.9 0 013-6.44l.45-.32a47.11 47.11 0 013.47 6.55 1.54 1.54 0 01.2.65 1.56 1.56 0 01-.18.65zm-11.72 0c-1 2-1.95 3.92-2.93 5.87a51.5 51.5 0 00-3.9-6.12.91.91 0 01-.21-.4.86.86 0 01.09-.47 49.15 49.15 0 013-6.44l.46-.32a49.34 49.34 0 013.47 6.55 1.54 1.54 0 01.2.65 1.7 1.7 0 01-.18.65zm-11.94 0c-1 2-1.95 3.92-2.93 5.87a51.5 51.5 0 00-3.9-6.12.91.91 0 01-.21-.4.86.86 0 01.09-.47 49.15 49.15 0 013-6.44l.46-.32a48.2 48.2 0 013.47 6.55 1.54 1.54 0 01.2.65 1.56 1.56 0 01-.18.65zM327.86 342l-61 .75c-9.69 20.67-19.57 41.93-23.89 52.2l-.18.43 41-.5 14.41-38.15 14.29 37.79 39.88-.48c-7.09-15.04-16.71-35.43-24.51-52.04z" transform="translate(-177.57 -259.72)"/><path class="cls-3" d="M237.37 407.91l41.68-.51 3.52-9.31-41.18.5c-1.46 3.39-2.82 6.5-4 9.32" transform="translate(-177.57 -259.72)"/><path class="cls-4" d="M237.37 407.91l41.68-.51 3.52-9.31-41.18.5c-1.46 3.41-2.82 6.5-4.02 9.32z" transform="translate(-177.57 -259.72)"/><path class="cls-3" d="M353.89 397.22l-40.18.49 3.49 9.22 41.06-.5c-1.25-2.62-2.72-5.73-4.37-9.21" transform="translate(-177.57 -259.72)"/><path class="cls-4" d="M353.89 397.22l-40.18.49 3.49 9.22 41.06-.5c-1.26-2.62-2.72-5.73-4.37-9.21z" transform="translate(-177.57 -259.72)"/><path class="cls-3" d="M361.81 413.94l-2-4.3-41.37.51 6.67 17.64c19.2.11 29.43.31 33.44-.16 5.11-.6 7.68-4.47 3.29-13.69" transform="translate(-177.57 -259.72)"/><path class="cls-4" d="M361.81 413.94l-2-4.3-41.37.51 6.67 17.64c19.2.11 29.43.31 33.44-.16 5.08-.63 7.65-4.47 3.26-13.69z" transform="translate(-177.57 -259.72)"/><path class="cls-5" d="M111.53 79.5l7.56-.09-3.75-5.68-3.81 5.77z"/><path class="cls-5" d="M236.9 427.55c5.51.05 18.42.11 34.48.15l6.44-17.06-41.81.51c-4.37 10.64-5.61 16.35.89 16.4m33.92-93.31l-2.45 5.23 6.18-.07c-1.28-1.8-2.61-3.65-3.73-5.16" transform="translate(-177.57 -259.72)"/><path class="cls-5" d="M100.28 79.64l7.82-.1-3.79-5.82-4.03 5.92zm22.42-.28l7.58-.09-3.89-5.58-3.69 5.67z"/><path class="cls-5" d="M290.09 293.07c-1.08 2.39-2.92 6.35-5.27 11.38l25.61-.31c-2.89-6.42-5.36-11.86-7.39-15.89-1-2.42-2.08-4.83-3.14-7.24 1.7-4.09 3.49-8.14 5.55-12.07 1.35-2.57-2.55-4.86-3.9-2.28-1.5 2.86-2.86 5.78-4.14 8.73-.75-1.68-1.49-3.37-2.26-5-.57-1.22-1.1-3.17-2.15-4.11-2.17-1.92-5.38 1.26-3.2 3.19-.57-.51.22.57.39.94.38.88.81 1.73 1.21 2.6 1.21 2.63 2.38 5.27 3.55 7.91a1.42 1.42 0 01.08.18c-1.22 3-2.4 6-3.6 9-.42 1-.87 2-1.34 3M280.7 330a1.44 1.44 0 011.22-.64 1.5 1.5 0 011.22.67l4.24 6.52 4.31-6.53a1.51 1.51 0 012.44 0l4.32 6.53 4.24-6.52a1.45 1.45 0 012.42 0l4.06 5.81 3.9-5.79a1.47 1.47 0 011.19-.65 1.55 1.55 0 011.2.6l4.26 5.8 3-4.82c-1.87-4-3.53-7.57-4.86-10.47l-.69-1.49-39.34.48-5.56 11.8c.93 1.2 2.18 2.92 3.94 5.39zm45.66 8.76q-1.14-2.4-2.19-4.67l-2.91 4.74zm-14.49-31.41l-28.57.35-4 8.48 36.35-.44q-2-4.38-3.79-8.39" transform="translate(-177.57 -259.72)"/><path class="cls-5" d="M132.98 79.24l7.84-.1-4.06-5.52-3.78 5.62z"/><path class="cls-5" d="M334.61 377.9a51.5 51.5 0 00-3.9-6.12.82.82 0 01-.21-.4.86.86 0 01.09-.47 49.15 49.15 0 013-6.44l.46-.32a48.2 48.2 0 013.47 6.55 1.52 1.52 0 01.19.65 1.68 1.68 0 01-.21.68c-1 2-2 3.92-2.93 5.87m-8.8-5.87c-1 2-1.95 3.92-2.92 5.87a51.58 51.58 0 00-3.91-6.12 1 1 0 01-.21-.4 1 1 0 01.1-.47 47.9 47.9 0 013-6.44l.45-.32a48.26 48.26 0 013.48 6.55 1.68 1.68 0 01.19.65 1.56 1.56 0 01-.22.68m-11.94 0c-1 2-1.95 3.92-2.92 5.87a51.58 51.58 0 00-3.91-6.12 1 1 0 01-.21-.4 1 1 0 01.1-.47 47.9 47.9 0 013-6.44l.45-.32a48.26 48.26 0 013.48 6.55 1.68 1.68 0 01.19.65 1.56 1.56 0 01-.22.68m-25.79 0c-1 2-1.95 3.92-2.92 5.87a51.58 51.58 0 00-3.91-6.12 1 1 0 01-.21-.4 1 1 0 01.1-.47 47.9 47.9 0 013-6.44l.45-.32a47.11 47.11 0 013.47 6.55 1.54 1.54 0 01.2.65 1.56 1.56 0 01-.22.68m-11.72 0c-1 2-1.95 3.92-2.93 5.87a51.5 51.5 0 00-3.9-6.12.91.91 0 01-.21-.4.86.86 0 01.09-.47 49.15 49.15 0 013-6.44l.46-.32a49.34 49.34 0 013.47 6.55 1.54 1.54 0 01.2.65 1.7 1.7 0 01-.22.68m-11.94 0c-1 2-1.95 3.92-2.93 5.87a51.5 51.5 0 00-3.9-6.12.91.91 0 01-.21-.4.86.86 0 01.09-.47 49.15 49.15 0 013-6.44l.46-.32a48.2 48.2 0 013.47 6.55 1.54 1.54 0 01.2.65 1.56 1.56 0 01-.22.68M327.86 342l-61 .75c-9.69 20.67-19.57 41.93-23.89 52.2l-.18.43 41-.5 14.41-38.15 14.29 37.79 39.88-.48c-7.1-15-16.72-35.4-24.52-52m-90.48 65.87l41.68-.51 3.52-9.31-41.18.5c-1.46 3.39-2.82 6.5-4 9.32m116.5-10.69l-40.18.49 3.49 9.22 41.06-.5c-1.25-2.62-2.72-5.73-4.37-9.21m7.92 16.72l-2-4.3-41.37.51 6.67 17.64c19.2.11 29.43.31 33.44-.16 5.11-.6 7.68-4.47 3.29-13.69" transform="translate(-177.57 -259.72)"/><path class="cls-3" d="M204.21 434.61c6-2.49 14.58-4.1 22.24-5.18.43-1.84 1-3.46 1.4-5 2.92.43 5.51 1.4 7 3l-.21.87 8.85-.76c4-.32 7.34 0 8.21 1.08.43.54 3.77 4.53 3.77 5.4a2.09 2.09 0 01-2.27 1.72c-5 .11-12.09.54-20.18 1.41-3.46 19.11-6 37.35-8.32 58.62.87-.22 3.35-1.51 3.68-.43.64 2.37-4.76 11.44-4.76 11.44-1 3-8.41-1.08-9.17-2.16 2.05-18.46 5.94-46.85 9.93-66.29-5 .76-10.26 1.84-15.55 3.14-2.8.64-6.47-6.16-4.64-6.91" transform="translate(-177.57 -259.72)"/><path class="cls-6" d="M204.21 434.61c6-2.49 14.58-4.1 22.24-5.18.43-1.84 1-3.46 1.4-5 2.92.43 5.51 1.4 7 3l-.21.87 8.85-.76c4-.32 7.34 0 8.21 1.08.43.54 3.77 4.53 3.77 5.4a2.09 2.09 0 01-2.27 1.72c-5 .11-12.09.54-20.18 1.41-3.46 19.11-6 37.35-8.32 58.62.87-.22 3.35-1.51 3.68-.43.64 2.37-4.76 11.44-4.76 11.44-1 3-8.41-1.08-9.17-2.16 2.05-18.46 5.94-46.85 9.93-66.29-5 .76-10.26 1.84-15.55 3.14-2.78.69-6.45-6.11-4.62-6.86z" transform="translate(-177.57 -259.72)"/><path class="cls-3" d="M278.06 476.6c3.77 0 7-12.2 7-22.13 0-4.53-.75-5.07-1.29-5.07s-1 .43-1.62 1.94c-2.59 5.83-6.05 15.87-7.23 23.75a3.78 3.78 0 003.13 1.51M250 479.3c3.78 0 6.59-11.66 6.59-21.59 0-4.54-.75-5.08-1.29-5.08s-1 .44-1.62 1.95a91.6 91.6 0 00-6.37 22s.54 2.7 2.69 2.7m5.3-32.5c4.1 0 8.85 3.24 8.85 13.18 0 13.82-3.78 26.34-12.31 26.34-4.64 0-6.26-4.54-6.26-4.54a25.47 25.47 0 00-1.96 10.24c0 5.07 1.94 8.85 7.45 8.85 8.31 0 14.14-7.77 15.11-30.44a2.42 2.42 0 011.94-1.62c3.35-13.28 9.4-25.26 15.66-25.26 4.1 0 8.85 3.23 8.85 13.17 0 13.82-3.78 26.34-12.31 26.34a8 8 0 01-6.69-3.35s-1.51 4.54-1.51 13.28c0 5.08 1.94 8.85 7.45 8.85 8.31 0 15-13.49 15-20.62 0 0 0-1.18 1.52-1.18 1.72 0 3.12 2.16 3.12 5.18 0 9.39-5.82 25.26-17.81 25.26-6.37 0-12.31-4.42-14.89-12.41-2.27 6.15-6.48 11.44-13.61 11.44-8.31 0-16.09-7.67-16.09-21.16 0-18 9-41.57 18.47-41.57" transform="translate(-177.57 -259.72)"/><path class="cls-6" d="M278.06 476.6c3.77 0 7-12.2 7-22.13 0-4.53-.75-5.07-1.29-5.07s-1 .43-1.62 1.94c-2.59 5.83-6.05 15.87-7.23 23.75a3.78 3.78 0 003.14 1.51zM250 479.3c3.78 0 6.59-11.66 6.59-21.59 0-4.54-.75-5.08-1.29-5.08s-1 .44-1.62 1.95a91.6 91.6 0 00-6.37 22s.52 2.72 2.69 2.72zm5.3-32.5c4.1 0 8.85 3.24 8.85 13.18 0 13.82-3.78 26.34-12.31 26.34-4.64 0-6.26-4.54-6.26-4.54a25.47 25.47 0 00-1.96 10.22c0 5.07 1.94 8.85 7.45 8.85 8.31 0 14.14-7.77 15.11-30.44a2.42 2.42 0 011.94-1.62c3.35-13.28 9.4-25.26 15.66-25.26 4.1 0 8.85 3.23 8.85 13.17 0 13.82-3.78 26.34-12.31 26.34a8 8 0 01-6.69-3.35s-1.51 4.54-1.51 13.28c0 5.08 1.94 8.85 7.45 8.85 8.31 0 15-13.49 15-20.62 0 0 0-1.18 1.52-1.18 1.72 0 3.12 2.16 3.12 5.18 0 9.39-5.82 25.26-17.81 25.26-6.37 0-12.31-4.42-14.89-12.41-2.27 6.15-6.48 11.44-13.61 11.44-8.31 0-16.09-7.67-16.09-21.16 0-17.99 8.97-41.53 18.47-41.53z" transform="translate(-177.57 -259.72)"/><path class="cls-3" d="M309.8 498c10 0 13.38-28.83 13.6-35.2.11-3.13.76-10.79-3.56-10.79-6.27 0-11.34 18.89-12.42 25-.11.44-2.05-.43-2.7-1a44.3 44.3 0 00-.86 7c-.22 8.2 1.51 14.9 5.94 14.9m-13.64 49c-.22 1.51-.54 1.51-1.3 1.62a19.21 19.21 0 01-7.12-2.27c-1.19-.75 4.78-43.18 7.8-63.15.46-13.31 3.14-36.11 6.16-36.11 2.48 0 6.15 2.48 6.05 3.67l-.22 2.38c3.24-4.64 6.91-6.8 9.82-6.8 11.34 0 13.17 10.47 12.85 21.7-.43 11.87-4.54 37.56-18.46 37.56-5.4 0-8.53-3.45-10.15-8.2l-.21 2.27c-1.08 8.53-4.58 42.86-5.22 47.39" transform="translate(-177.57 -259.72)"/><path class="cls-6" d="M309.8 498c10 0 13.38-28.83 13.6-35.2.11-3.13.76-10.79-3.56-10.79-6.27 0-11.34 18.89-12.42 25-.11.44-2.05-.43-2.7-1a44.3 44.3 0 00-.86 7c-.22 8.27 1.51 14.99 5.94 14.99zm-13.64 49c-.22 1.51-.54 1.51-1.3 1.62a19.21 19.21 0 01-7.12-2.27c-1.19-.75 4.78-43.18 7.8-63.15.46-13.4 3.14-36.2 6.16-36.2 2.48 0 6.15 2.48 6.05 3.67l-.22 2.38c3.24-4.64 6.91-6.8 9.82-6.8 11.34 0 13.17 10.47 12.85 21.7-.43 11.87-4.54 37.56-18.46 37.56-5.4 0-8.53-3.45-10.15-8.2l-.21 2.27c-1.08 8.55-4.58 42.88-5.22 47.42z" transform="translate(-177.57 -259.72)"/><path class="cls-3" d="M371.55 476.6c3.78 0 7-12.2 7-22.13 0-4.53-.76-5.07-1.3-5.07s-1 .43-1.62 1.94c-2.59 5.83-6 15.87-7.23 23.75a3.78 3.78 0 003.13 1.51m-28.07 2.7c3.78 0 6.59-11.66 6.59-21.59 0-4.54-.76-5.08-1.3-5.08s-1 .44-1.62 1.95a91.6 91.6 0 00-6.37 22s.54 2.7 2.7 2.7m5.29-32.5c4.1 0 8.85 3.24 8.85 13.18 0 13.82-3.78 26.34-12.31 26.34-4.64 0-6.26-4.54-6.26-4.54a25.47 25.47 0 00-1.92 10.24c0 5.07 1.94 8.85 7.45 8.85 8.31 0 14.14-7.77 15.11-30.44a2.42 2.42 0 011.95-1.62c3.34-13.28 9.39-25.26 15.65-25.26 4.1 0 8.85 3.23 8.85 13.17 0 13.82-3.77 26.34-12.3 26.34a8 8 0 01-6.7-3.35s-1.51 4.54-1.51 13.28c0 5.08 1.94 8.85 7.45 8.85 8.31 0 15-13.49 15-20.62 0 0 0-1.18 1.52-1.18 1.72 0 3.13 2.16 3.13 5.18 0 9.39-5.83 25.26-17.82 25.26-6.37 0-12.3-4.42-14.89-12.41-2.27 6.15-6.48 11.44-13.61 11.44-8.31 0-16.08-7.67-16.08-21.16 0-18 9-41.57 18.46-41.57" transform="translate(-177.57 -259.72)"/><path class="cls-6" d="M371.55 476.6c3.78 0 7-12.2 7-22.13 0-4.53-.76-5.07-1.3-5.07s-1 .43-1.62 1.94c-2.59 5.83-6 15.87-7.23 23.75a3.78 3.78 0 003.15 1.51zm-28.07 2.7c3.78 0 6.59-11.66 6.59-21.59 0-4.54-.76-5.08-1.3-5.08s-1 .44-1.62 1.95a91.6 91.6 0 00-6.37 22s.54 2.72 2.7 2.72zm5.29-32.5c4.1 0 8.85 3.24 8.85 13.18 0 13.82-3.78 26.34-12.31 26.34-4.64 0-6.26-4.54-6.26-4.54a25.47 25.47 0 00-1.94 10.22c0 5.07 1.94 8.85 7.45 8.85 8.31 0 14.14-7.77 15.11-30.44a2.42 2.42 0 011.95-1.62c3.34-13.28 9.39-25.26 15.65-25.26 4.1 0 8.85 3.23 8.85 13.17 0 13.82-3.77 26.34-12.3 26.34a8 8 0 01-6.7-3.35s-1.51 4.54-1.51 13.28c0 5.08 1.94 8.85 7.45 8.85 8.31 0 15-13.49 15-20.62 0 0 0-1.18 1.52-1.18 1.72 0 3.13 2.16 3.13 5.18 0 9.39-5.83 25.26-17.82 25.26-6.37 0-12.3-4.42-14.89-12.41-2.27 6.15-6.48 11.44-13.61 11.44-8.31 0-16.08-7.67-16.08-21.16 0-17.99 8.96-41.53 18.46-41.53z" transform="translate(-177.57 -259.72)"/><path class="cls-7" d="M204.21 434.61c6-2.49 14.58-4.1 22.24-5.18.43-1.84 1-3.46 1.4-5 2.92.43 5.51 1.4 7 3l-.21.87 8.85-.76c4-.32 7.34 0 8.21 1.08.43.54 3.77 4.53 3.77 5.4a2.09 2.09 0 01-2.27 1.72c-5 .11-12.09.54-20.18 1.41-3.46 19.11-6 37.35-8.32 58.62.87-.22 3.35-1.51 3.68-.43.64 2.37-4.76 11.44-4.76 11.44-1 3-8.41-1.08-9.17-2.16 2.05-18.46 5.94-46.85 9.93-66.29-5 .76-10.26 1.84-15.55 3.14-2.8.64-6.47-6.16-4.64-6.91" transform="translate(-177.57 -259.72)"/><path class="cls-7" d="M278.06 476.6c3.77 0 7-12.2 7-22.13 0-4.53-.75-5.07-1.29-5.07s-1 .43-1.62 1.94c-2.59 5.83-6.05 15.87-7.23 23.75a3.78 3.78 0 003.13 1.51M250 479.3c3.78 0 6.59-11.66 6.59-21.59 0-4.54-.75-5.08-1.29-5.08s-1 .44-1.62 1.95a91.6 91.6 0 00-6.37 22s.54 2.7 2.69 2.7m5.3-32.5c4.1 0 8.85 3.24 8.85 13.18 0 13.82-3.78 26.34-12.31 26.34-4.64 0-6.26-4.54-6.26-4.54a25.47 25.47 0 00-1.96 10.24c0 5.07 1.94 8.85 7.45 8.85 8.31 0 14.14-7.77 15.11-30.44a2.42 2.42 0 011.94-1.62c3.35-13.28 9.4-25.26 15.66-25.26 4.1 0 8.85 3.23 8.85 13.17 0 13.82-3.78 26.34-12.31 26.34a8 8 0 01-6.69-3.35s-1.51 4.54-1.51 13.28c0 5.08 1.94 8.85 7.45 8.85 8.31 0 15-13.49 15-20.62 0 0 0-1.18 1.52-1.18 1.72 0 3.12 2.16 3.12 5.18 0 9.39-5.82 25.26-17.81 25.26-6.37 0-12.31-4.42-14.89-12.41-2.27 6.15-6.48 11.44-13.61 11.44-8.31 0-16.09-7.67-16.09-21.16 0-18 9-41.57 18.47-41.57" transform="translate(-177.57 -259.72)"/><path class="cls-7" d="M309.8 498c10 0 13.38-28.83 13.6-35.2.11-3.13.76-10.79-3.56-10.79-6.27 0-11.34 18.89-12.42 25-.11.44-2.05-.43-2.7-1a44.3 44.3 0 00-.86 7c-.22 8.2 1.51 14.9 5.94 14.9m-13.64 49c-.22 1.51-.54 1.51-1.3 1.62a19.21 19.21 0 01-7.12-2.27c-1.19-.75 4.78-43.18 7.8-63.15.46-13.31 3.14-36.11 6.16-36.11 2.48 0 6.15 2.48 6.05 3.67l-.22 2.38c3.24-4.64 6.91-6.8 9.82-6.8 11.34 0 13.17 10.47 12.85 21.7-.43 11.87-4.54 37.56-18.46 37.56-5.4 0-8.53-3.45-10.15-8.2l-.21 2.27c-1.08 8.53-4.58 42.86-5.22 47.39m75.39-70.37c3.78 0 7-12.2 7-22.13 0-4.53-.76-5.07-1.3-5.07s-1 .43-1.62 1.94c-2.59 5.83-6 15.87-7.23 23.75a3.78 3.78 0 003.13 1.51m-28.07 2.7c3.78 0 6.59-11.66 6.59-21.59 0-4.54-.76-5.08-1.3-5.08s-1 .44-1.62 1.95a91.6 91.6 0 00-6.37 22s.54 2.7 2.7 2.7m5.29-32.5c4.1 0 8.85 3.24 8.85 13.18 0 13.82-3.78 26.34-12.31 26.34-4.64 0-6.26-4.54-6.26-4.54a25.47 25.47 0 00-1.92 10.24c0 5.07 1.94 8.85 7.45 8.85 8.31 0 14.14-7.77 15.11-30.44a2.42 2.42 0 011.95-1.62c3.34-13.28 9.39-25.26 15.65-25.26 4.1 0 8.85 3.23 8.85 13.17 0 13.82-3.77 26.34-12.3 26.34a8 8 0 01-6.7-3.35s-1.51 4.54-1.51 13.28c0 5.08 1.94 8.85 7.45 8.85 8.31 0 15-13.49 15-20.62 0 0 0-1.18 1.52-1.18 1.72 0 3.13 2.16 3.13 5.18 0 9.39-5.83 25.26-17.82 25.26-6.37 0-12.3-4.42-14.89-12.41-2.27 6.15-6.48 11.44-13.61 11.44-8.31 0-16.08-7.67-16.08-21.16 0-18 9-41.57 18.46-41.57" transform="translate(-177.57 -259.72)"/><path class="cls-3" d="M199.93 538.17c-2.32 2.88-4.54 5.85-6.74 8.82-.25.34-.39 1.11-.19 1.34a1.71 1.71 0 001.38.25 2.16 2.16 0 001.09-.73q4.46-5.1 8.86-10.26a3.82 3.82 0 00.39-1 4.06 4.06 0 00-4.79 1.61m10.72-4.89c1.54 1.64 3.63 1.64 6.06 1.17-2.68-2.78-5.19-5.33-7.64-7.94a40.28 40.28 0 01-2.89-3.6c-.83-1.13-2.45-1.18-4.62.23 3.11 3.49 6 6.89 9.09 10.14m-2.84.79a12.85 12.85 0 00-1.21-2.1c-2-2.43-4.07-4.9-6.32-7.13a8.21 8.21 0 00-3.72-1.9c-1.36-.32-1.73.65-1 1.77 1.54 2.44 3.14 4.83 4.75 7.23a6 6 0 005.35 2.84l2.18-.7m10.11 5c-2.26 2.35-4.25 5-6.5 7.29-.79.82-1.38 2.48-3.13 1.64a17.87 17.87 0 011.62-3c2.13-2.63 4.38-5.15 6.6-7.74-2.54-1.6-4.85-1-5.92 1.29a17.8 17.8 0 01-6.82 8.27c-.7.43-1.42.8-2.14 1.2l.6.93a22.2 22.2 0 002.28.29c3.71.1 7.42.19 11.12.2.58 0 1.58-.28 1.68-.63 1.17-4.14 4.91-6.13 7.46-9.1.56-.65 1.17-1.23 2.14-2.25-3.74-1-6.65-.78-9 1.64M233 531a11.68 11.68 0 011.34 2.72c-1-.42-2.2-.61-2.88-1.31-3.11-3.17-6.05-6.5-9.07-9.76-.35-.37-.8-.84-1.24-.87-2.68-.23-5.37-.34-8.06-.49-.07.19-.15.38-.21.57a12.29 12.29 0 001 1.26c2.8 2.76 5.66 5.46 8.41 8.26a17.85 17.85 0 011.49 2.56c.34.48.87 1.17 1.32 1.18 5.81.05 11.62 0 17.43 0l.21-.83c-.45-.53-.88-1.07-1.35-1.58-2.48-2.75-5.08-5.41-7.43-8.27s-5.44-3.12-9.49-2.63c3.14 3.37 5.9 6.24 8.53 9.22m-7.82 17.8c1.68-.07 3.36-.21 5-.17.44 0 .85.59 1.28.91a4.58 4.58 0 01-1.09.9 4.3 4.3 0 01-1.53.23c-4.67.2-9.35.54-14 .55-7.43 0-14.86-.15-22.29-.36a11.37 11.37 0 01-3.22-1.13 14 14 0 011.31-2.91c2.38-3.13 4.86-6.18 7.32-9.24 1.38-1.71 1.56-3.2.05-5.12a72.63 72.63 0 01-5-7.85c-1-1.72-.53-2.76 1.37-3.36a9.52 9.52 0 012.37-.57c7.48-.35 15-.66 22.45-1 3-.13 5.91-.25 8.87-.4 2.64-.13 5 .44 6.76 2.6 2.61 3.13 5.48 6.05 7.95 9.28 1.93 2.54 4.3 3.29 7.3 3.3 11.81.07 23.62.39 35.43.36 13.89 0 27.78-.34 41.67-.53 1.44 0 2.74-.11 3.58-1.67.75-1.38 2.09-1.21 3.3-.49.7.42 1.29 1 2 1.39 2 1.08 4.28.48 4.77-1.28a4.42 4.42 0 014.42-3.65c2.55-.1 4.88 0 6.09 2.87 1 2.43 4.12 2.76 6 .78 2.58-2.72 2.67-2.68 5.63-.52 3.57 2.6 7.67 2.29 11.75 1.89.13 0 .23-.33.14-.19-2.31-3.19-4.59-6.17-6.66-9.29-.48-.71-.27-1.88-.37-2.83a11.11 11.11 0 013.33-.19c1.26.3 2.36 1.22 3.61 1.66 10 3.52 20.13 7 30.18 10.51a8.34 8.34 0 012.08 1.6 10.33 10.33 0 01-2.26 1.12c-2.89.63-5.85 1-8.71 1.7-7.74 2-15.41 4.29-22.38 8.43a16.67 16.67 0 01-4.19 1.22c-.76.2-1.53.4-2.3.54-.47.09-1.29.23-1.39.05a1.9 1.9 0 01-.12-1.57c1.27-2 2.63-3.94 4-5.86 1-1.41 2.09-2.77 3.13-4.15-.09-.27-.19-.53-.29-.8-2.82.13-5.79-.23-8.42.55-2.09.62-3.66.93-5.61-.15-2.14-1.17-6.24-.71-7.35.53-3.08 3.42-4.93 3.52-8.57.45-2.36-2-4-2-6.12.28-1.58 1.68-3.06 1.53-5 .47a10.3 10.3 0 00-4.54-1.41c-5.57-.16-11.14-.11-16.71 0-14.79.23-29.57.61-44.35.71-6.16 0-12.32-.45-18.48-.74a3.62 3.62 0 00-3.31 1.66c-3 3.7-6.14 7.23-9.34 10.73-.45.49-1.49.45-2.25.65a6.48 6.48 0 01.75-2.26c2.39-2.74 4.91-5.36 7.35-8a13.51 13.51 0 001.16-2c-2.65.18-5-1-6.84 1.25a28.07 28.07 0 01-2.11 2.25c-2.65 2.57-5.33 5.12-8 7.67l.34.69" transform="translate(-177.57 -259.72)"/><path d="M22.36 278.45c-2.32 2.88-4.54 5.85-6.74 8.82-.25.34-.39 1.11-.19 1.34a1.71 1.71 0 001.38.25 2.16 2.16 0 001.09-.73q4.46-5.1 8.86-10.26a3.82 3.82 0 00.39-1 4.06 4.06 0 00-4.79 1.58zm10.72-4.89c1.54 1.64 3.63 1.64 6.06 1.17-2.68-2.78-5.19-5.33-7.64-7.94a40.28 40.28 0 01-2.89-3.6c-.83-1.13-2.45-1.18-4.62.23 3.11 3.49 6.02 6.86 9.09 10.14zm-2.84.79a12.85 12.85 0 00-1.21-2.07c-2-2.43-4.07-4.9-6.32-7.13a8.21 8.21 0 00-3.72-1.9c-1.36-.32-1.73.65-1 1.77 1.54 2.44 3.14 4.83 4.75 7.23a6 6 0 005.35 2.84zm10.11 5c-2.26 2.35-4.25 5-6.5 7.29-.79.82-1.38 2.48-3.13 1.64a17.87 17.87 0 011.62-3c2.13-2.63 4.38-5.15 6.6-7.74-2.54-1.6-4.85-1-5.92 1.29a17.8 17.8 0 01-6.82 8.27c-.7.43-1.42.8-2.14 1.2l.6.93a22.2 22.2 0 002.28.29c3.71.1 7.42.19 11.12.2.58 0 1.58-.28 1.68-.63 1.17-4.14 4.91-6.13 7.46-9.1.56-.65 1.17-1.23 2.14-2.25-3.74-1.02-6.65-.76-8.99 1.66zm15.08-8.07a11.68 11.68 0 011.34 2.72c-1-.42-2.2-.61-2.88-1.31-3.11-3.17-6.05-6.5-9.07-9.76-.35-.37-.8-.84-1.24-.87-2.68-.23-5.37-.34-8.06-.49-.07.19-.15.38-.21.57a12.29 12.29 0 001 1.26c2.8 2.76 5.66 5.46 8.41 8.26a17.85 17.85 0 011.49 2.56c.34.48.87 1.17 1.32 1.18 5.81.05 11.62 0 17.43 0l.21-.83c-.45-.53-.88-1.07-1.35-1.58-2.48-2.75-5.08-5.41-7.43-8.27s-5.44-3.12-9.49-2.63c3.17 3.36 5.93 6.19 8.53 9.19zm-7.82 17.8c1.68-.07 3.36-.21 5-.17.44 0 .85.59 1.28.91a4.58 4.58 0 01-1.09.9 4.3 4.3 0 01-1.53.23c-4.67.2-9.35.54-14 .55-7.43 0-14.86-.15-22.29-.36a11.37 11.37 0 01-3.22-1.13 14 14 0 011.31-2.91c2.38-3.13 4.86-6.18 7.32-9.24 1.38-1.71 1.56-3.2.05-5.12a72.63 72.63 0 01-5-7.85c-1-1.72-.53-2.76 1.37-3.36a9.52 9.52 0 012.37-.57c7.48-.35 15-.66 22.45-1 3-.13 5.91-.25 8.87-.4 2.64-.13 5 .44 6.76 2.6 2.61 3.13 5.48 6.05 7.95 9.28 1.93 2.54 4.3 3.29 7.3 3.3 11.81.07 23.62.39 35.43.36 13.89 0 27.78-.34 41.67-.53 1.44 0 2.74-.11 3.58-1.67.75-1.38 2.09-1.21 3.3-.49.7.42 1.29 1 2 1.39 2 1.08 4.28.48 4.77-1.28a4.42 4.42 0 014.42-3.65c2.55-.1 4.88 0 6.09 2.87 1 2.43 4.12 2.76 6 .78 2.58-2.72 2.67-2.68 5.63-.52 3.57 2.6 7.67 2.29 11.75 1.89.13 0 .23-.33.14-.19-2.31-3.19-4.59-6.17-6.66-9.29-.48-.71-.27-1.88-.37-2.83a11.11 11.11 0 013.33-.19c1.26.3 2.36 1.22 3.61 1.66 10 3.52 20.13 7 30.18 10.51a8.34 8.34 0 012.08 1.6 10.33 10.33 0 01-2.26 1.12c-2.89.63-5.85 1-8.71 1.7-7.74 2-15.41 4.29-22.38 8.43a16.67 16.67 0 01-4.19 1.22c-.76.2-1.53.4-2.3.54-.47.09-1.29.23-1.39.05a1.9 1.9 0 01-.12-1.57c1.27-2 2.63-3.94 4-5.86 1-1.41 2.09-2.77 3.13-4.15-.09-.27-.19-.53-.29-.8-2.82.13-5.79-.23-8.42.55-2.09.62-3.66.93-5.61-.15-2.14-1.17-6.24-.71-7.35.53-3.08 3.42-4.93 3.52-8.57.45-2.36-2-4-2-6.12.28-1.58 1.68-3.06 1.53-5 .47a10.3 10.3 0 00-4.54-1.41c-5.57-.16-11.14-.11-16.71 0-14.79.23-29.57.61-44.35.71-6.16 0-12.32-.45-18.48-.74a3.62 3.62 0 00-3.31 1.66c-3 3.7-6.14 7.23-9.34 10.73-.45.49-1.49.45-2.25.65a6.48 6.48 0 01.75-2.26c2.39-2.74 4.91-5.36 7.35-8a13.51 13.51 0 001.16-2c-2.65.18-5-1-6.84 1.25a28.07 28.07 0 01-2.11 2.25c-2.65 2.57-5.33 5.12-8 7.67z" stroke-width="7.75" fill="none" stroke="#fff" stroke-miterlimit="10"/><path d="M199.93 538.17c-2.32 2.88-4.54 5.85-6.74 8.82-.25.34-.39 1.11-.19 1.34a1.71 1.71 0 001.38.25 2.16 2.16 0 001.09-.73q4.46-5.1 8.86-10.26a3.82 3.82 0 00.39-1 4.06 4.06 0 00-4.79 1.61m10.72-4.89c1.54 1.64 3.63 1.64 6.06 1.17-2.68-2.78-5.19-5.33-7.64-7.94a40.28 40.28 0 01-2.89-3.6c-.83-1.13-2.45-1.18-4.62.23 3.11 3.49 6 6.89 9.09 10.14m-2.84.79a12.85 12.85 0 00-1.21-2.1c-2-2.43-4.07-4.9-6.32-7.13a8.21 8.21 0 00-3.72-1.9c-1.36-.32-1.73.65-1 1.77 1.54 2.44 3.14 4.83 4.75 7.23a6 6 0 005.35 2.84l2.18-.7m10.11 5c-2.26 2.35-4.25 5-6.5 7.29-.79.82-1.38 2.48-3.13 1.64a17.87 17.87 0 011.62-3c2.13-2.63 4.38-5.15 6.6-7.74-2.54-1.6-4.85-1-5.92 1.29a17.8 17.8 0 01-6.82 8.27c-.7.43-1.42.8-2.14 1.2l.6.93a22.2 22.2 0 002.28.29c3.71.1 7.42.19 11.12.2.58 0 1.58-.28 1.68-.63 1.17-4.14 4.91-6.13 7.46-9.1.56-.65 1.17-1.23 2.14-2.25-3.74-1-6.65-.78-9 1.64M233 531a11.68 11.68 0 011.34 2.72c-1-.42-2.2-.61-2.88-1.31-3.11-3.17-6.05-6.5-9.07-9.76-.35-.37-.8-.84-1.24-.87-2.68-.23-5.37-.34-8.06-.49-.07.19-.15.38-.21.57a12.29 12.29 0 001 1.26c2.8 2.76 5.66 5.46 8.41 8.26a17.85 17.85 0 011.49 2.56c.34.48.87 1.17 1.32 1.18 5.81.05 11.62 0 17.43 0l.21-.83c-.45-.53-.88-1.07-1.35-1.58-2.48-2.75-5.08-5.41-7.43-8.27s-5.44-3.12-9.49-2.63c3.14 3.37 5.9 6.24 8.53 9.22m-7.82 17.8c1.68-.07 3.36-.21 5-.17.44 0 .85.59 1.28.91a4.58 4.58 0 01-1.09.9 4.3 4.3 0 01-1.53.23c-4.67.2-9.35.54-14 .55-7.43 0-14.86-.15-22.29-.36a11.37 11.37 0 01-3.22-1.13 14 14 0 011.31-2.91c2.38-3.13 4.86-6.18 7.32-9.24 1.38-1.71 1.56-3.2.05-5.12a72.63 72.63 0 01-5-7.85c-1-1.72-.53-2.76 1.37-3.36a9.52 9.52 0 012.37-.57c7.48-.35 15-.66 22.45-1 3-.13 5.91-.25 8.87-.4 2.64-.13 5 .44 6.76 2.6 2.61 3.13 5.48 6.05 7.95 9.28 1.93 2.54 4.3 3.29 7.3 3.3 11.81.07 23.62.39 35.43.36 13.89 0 27.78-.34 41.67-.53 1.44 0 2.74-.11 3.58-1.67.75-1.38 2.09-1.21 3.3-.49.7.42 1.29 1 2 1.39 2 1.08 4.28.48 4.77-1.28a4.42 4.42 0 014.42-3.65c2.55-.1 4.88 0 6.09 2.87 1 2.43 4.12 2.76 6 .78 2.58-2.72 2.67-2.68 5.63-.52 3.57 2.6 7.67 2.29 11.75 1.89.13 0 .23-.33.14-.19-2.31-3.19-4.59-6.17-6.66-9.29-.48-.71-.27-1.88-.37-2.83a11.11 11.11 0 013.33-.19c1.26.3 2.36 1.22 3.61 1.66 10 3.52 20.13 7 30.18 10.51a8.34 8.34 0 012.08 1.6 10.33 10.33 0 01-2.26 1.12c-2.89.63-5.85 1-8.71 1.7-7.74 2-15.41 4.29-22.38 8.43a16.67 16.67 0 01-4.19 1.22c-.76.2-1.53.4-2.3.54-.47.09-1.29.23-1.39.05a1.9 1.9 0 01-.12-1.57c1.27-2 2.63-3.94 4-5.86 1-1.41 2.09-2.77 3.13-4.15-.09-.27-.19-.53-.29-.8-2.82.13-5.79-.23-8.42.55-2.09.62-3.66.93-5.61-.15-2.14-1.17-6.24-.71-7.35.53-3.08 3.42-4.93 3.52-8.57.45-2.36-2-4-2-6.12.28-1.58 1.68-3.06 1.53-5 .47a10.3 10.3 0 00-4.54-1.41c-5.57-.16-11.14-.11-16.71 0-14.79.23-29.57.61-44.35.71-6.16 0-12.32-.45-18.48-.74a3.62 3.62 0 00-3.31 1.66c-3 3.7-6.14 7.23-9.34 10.73-.45.49-1.49.45-2.25.65a6.48 6.48 0 01.75-2.26c2.39-2.74 4.91-5.36 7.35-8a13.51 13.51 0 001.16-2c-2.65.18-5-1-6.84 1.25a28.07 28.07 0 01-2.11 2.25c-2.65 2.57-5.33 5.12-8 7.67l.34.69" transform="translate(-177.57 -259.72)" fill="#c6c6c6"/><path class="cls-7" d="M37.76 305.69v15.3h10.39v-.81H38.7v-6.73h8.78v-.82H38.7v-6.12h9.34v-.82H37.76zm33.85 0l-5.92 14.25h-.04l-5.98-14.25h-1.35v15.3h.95v-14.14h.04l5.89 14.14h.94l5.83-14.14h.04v14.14h.94v-15.3h-1.34z"/><path class="cls-7" d="M262.74 573.08h5.38a4.33 4.33 0 001.74-.31A3.21 3.21 0 00271 572a3 3 0 00.62-1.09 3.86 3.86 0 00.19-1.2 4.57 4.57 0 00-.13-1 2.91 2.91 0 00-.51-1.14 3.18 3.18 0 00-1.08-.92 3.93 3.93 0 00-1.86-.38h-5.5zm-.94-7.67h6.51a7.73 7.73 0 011.43.15 3.78 3.78 0 011.45.61 3.57 3.57 0 011.13 1.31 4.69 4.69 0 01.45 2.21 3.92 3.92 0 01-1.25 3.11 5.18 5.18 0 01-3.55 1.09h-5.23v6.82h-.94zm21.49 7.65a9 9 0 00.42 2.78 7 7 0 001.24 2.29 6.12 6.12 0 002 1.55 6.07 6.07 0 007.32-1.55 6.86 6.86 0 001.25-2.29 9.23 9.23 0 000-5.57 6.81 6.81 0 00-1.25-2.28 6.24 6.24 0 00-7.32-1.55 6 6 0 00-2 1.55 7 7 0 00-1.24 2.28 9.05 9.05 0 00-.42 2.79m13.6 0a10.07 10.07 0 01-.49 3.14 7.66 7.66 0 01-1.43 2.55 6.56 6.56 0 01-2.28 1.7 7.91 7.91 0 01-6.14 0 6.51 6.51 0 01-2.29-1.7 7.47 7.47 0 01-1.42-2.55 10.11 10.11 0 010-6.28 7.38 7.38 0 011.42-2.55 6.51 6.51 0 012.29-1.7 7.91 7.91 0 016.14 0 6.56 6.56 0 012.28 1.7 7.56 7.56 0 011.43 2.55 10.07 10.07 0 01.49 3.14m16.97-.13a5.93 5.93 0 001.55-.2 3.28 3.28 0 001.23-.64 3 3 0 00.82-1.09 4 4 0 00.3-1.59 3 3 0 00-.33-1.46 2.85 2.85 0 00-.85-1 3.58 3.58 0 00-1.24-.55 6.06 6.06 0 00-1.48-.18h-5.45v6.71zm-6.39-7.52h6.39a8.6 8.6 0 011.88.2 4.39 4.39 0 011.54.67 3.13 3.13 0 011 1.21 4.13 4.13 0 01.38 1.86 4 4 0 01-.87 2.61 3.81 3.81 0 01-2.41 1.31 3.77 3.77 0 011.66.56 2.75 2.75 0 01.91 1 4.35 4.35 0 01.39 1.37c.05.5.08 1 .08 1.5v.88a6.6 6.6 0 00.05.8 3.49 3.49 0 00.13.7 1.82 1.82 0 00.27.54h-1.05a2.8 2.8 0 01-.33-1.26v-1.49c0-.49 0-1-.07-1.53a3.18 3.18 0 00-.4-1.36 2.41 2.41 0 00-1.09-1 4.66 4.66 0 00-2.08-.37h-5.45v7h-.94z" transform="translate(-177.57 -259.72)"/><path class="cls-7" d="M151.97 305.69h.94v15.29h-.94z"/><path class="cls-7" d="M342.69 565.41v10.17a6.93 6.93 0 00.22 1.23 6.1 6.1 0 00.48 1.24 3.87 3.87 0 00.85 1.1 4 4 0 001.32.77 5.52 5.52 0 001.89.29 6.31 6.31 0 002.37-.4 3.71 3.71 0 001.54-1.14 4.6 4.6 0 00.85-1.78 10.05 10.05 0 00.25-2.36v-9.17h.95v9.17a10.88 10.88 0 01-.29 2.55 5.39 5.39 0 01-1 2.06 4.7 4.7 0 01-1.83 1.38 7.22 7.22 0 01-2.86.5 6.86 6.86 0 01-2.31-.34 5 5 0 01-1.6-.89 4.41 4.41 0 01-1-1.25 7.64 7.64 0 01-.55-1.43 7.11 7.11 0 01-.24-1.39v-10.36z" transform="translate(-177.57 -259.72)"/><path class="cls-7" d="M200.43 305.69l-5.92 14.25h-.04l-5.98-14.25h-1.34v15.3h.94v-14.14h.04l5.89 14.14h.94l5.83-14.14h.05v14.14h.94v-15.3h-1.35z"/></svg>