<svg xmlns="http://www.w3.org/2000/svg" xmlns:xlink="http://www.w3.org/1999/xlink" viewBox="0 0 300.58 360"><defs><style>.cls-1{fill:none;}.cls-2{clip-path:url(#clip-path);}.cls-3{fill:#2aa948;}</style><clipPath id="clip-path" transform="translate(0 -0.01)"><rect class="cls-1" width="300.57" height="360"/></clipPath></defs><g id="Layer_2" data-name="Layer 2"><g id="Layer_3" data-name="Layer 3"><g class="cls-2"><path class="cls-3" d="M273.49,72.24h0L92.1,27l-65,260.73,181.39,45.21ZM83,280.42h0l79.47,19.8A7.33,7.33,0,1,0,166.05,286l-79.47-19.8A7.33,7.33,0,0,0,83,280.42M86.17.38l.24.06L291.34,51.55a12.19,12.19,0,0,1,8.88,14.75l-.09.3L229.28,350.73a12.24,12.24,0,0,1-14.78,8.92l-.35-.09L9.36,308.48a12.27,12.27,0,0,1-9-14.81l.09-.36L71.27,9.24A12.26,12.26,0,0,1,86.17.38" transform="translate(0 -0.01)"/></g></g></g></svg>