<svg xmlns="http://www.w3.org/2000/svg" xmlns:xlink="http://www.w3.org/1999/xlink" viewBox="0 0 306.45 360"><defs><style>.cls-1{fill:none;}.cls-2{clip-path:url(#clip-path);}.cls-3{fill:#2aa948;}</style><clipPath id="clip-path" transform="translate(-0.01 0.01)"><rect class="cls-1" width="306.45" height="360"/></clipPath></defs><g id="Layer_2" data-name="Layer 2"><g id="Layer_1-2" data-name="Layer 1"><g class="cls-2"><path class="cls-3" d="M153.22,228.05h0c-37.95,0-68.82-31.68-68.82-70.59,0-39.06,30.87-70.74,68.82-70.74S222,118.55,222,157.46c0,38.76-31.14,70.59-68.82,70.59m0-157.74h0c-46.71,0-84.81,39.27-84.81,87.15s38.25,87,84.81,87,84.81-39.39,84.81-87c0-47.88-38.25-87.15-84.81-87.15m103,162.93h0a128.88,128.88,0,0,1-59.4,46.29l-.12.06-1.38.57-2.73,1-1.92,2L153.22,321.5l-37.14-38.28-2-2.1-2.88-1-1.35-.57a128.07,128.07,0,0,1-59.55-46.35A132.56,132.56,0,0,1,26.5,157.46a131.16,131.16,0,0,1,37.14-92,124.22,124.22,0,0,1,179.16,0,131.19,131.19,0,0,1,37.17,92,132.59,132.59,0,0,1-23.79,75.78m5.34-187.11h0A151.14,151.14,0,0,0,153.22,0C112.66,0,73.6,16.76,44.92,46.13a160.31,160.31,0,0,0-16.11,203,154.08,154.08,0,0,0,70.47,55.47L144,350.39l9.27,9.6,9.42-9.6,6.84-7.08,37.68-38.7a154.45,154.45,0,0,0,70.47-55.53,160.21,160.21,0,0,0-16.11-203" transform="translate(-0.01 0.01)"/></g></g></g></svg>