<svg xmlns="http://www.w3.org/2000/svg" xmlns:xlink="http://www.w3.org/1999/xlink" viewBox="0 0 358.58 300"><defs><style>.cls-1{fill:none;}.cls-2{clip-path:url(#clip-path);}.cls-3{fill:#2aa948;}</style><clipPath id="clip-path" transform="translate(-0.01 0.01)"><rect class="cls-1" width="358.59" height="300"/></clipPath></defs><g id="Layer_2" data-name="Layer 2"><g id="Layer_2-2" data-name="Layer 2"><g class="cls-2"><path class="cls-3" d="M317.7,50h0l-179.25,153,95.28,64.6ZM125.15,194h0L303.65,41.7,40.83,136.87ZM8.43,121.35,341.39.77a12.8,12.8,0,0,1,16.43,7.69,13,13,0,0,1-.21,9.37l-105.73,274a12.82,12.82,0,0,1-16.57,7.34,11.52,11.52,0,0,1-3.13-1.76C99.24,207.43,159.41,248.15,5.62,144a12.88,12.88,0,0,1-3.4-17.83,12.31,12.31,0,0,1,6.21-4.81Z" transform="translate(-0.01 0.01)"/></g></g></g></svg>