<svg xmlns="http://www.w3.org/2000/svg" viewBox="0 0 278.06 250.32"><defs><style>.cls-1{fill:#39b54a;}.cls-2{fill:#fff;}</style></defs><title>Asset 1</title><g id="Layer_2" data-name="Layer 2"><g id="Layer_1-2" data-name="Layer 1"><path class="cls-1" d="M234.62,232.35h41.13a2.1,2.1,0,0,1,2.17,2.18l.14,12.58a2.09,2.09,0,0,1-2.18,2.07H234.75a2.08,2.08,0,0,1-2.17-2.07l-.14-12.58A2.11,2.11,0,0,1,234.62,232.35Z"/><path class="cls-2" d="M90.32,3.13A2.27,2.27,0,0,1,92.49.91h13.75a2.27,2.27,0,0,1,2.18,2.22V80.47a2.27,2.27,0,0,1-2.18,2.21H92.49a2.27,2.27,0,0,1-2.17-2.21Z"/><path class="cls-2" d="M114.26,3.13A2.19,2.19,0,0,1,116.43.91h13.64a2.27,2.27,0,0,1,2.17,2.22V65.51h27.27a2.2,2.2,0,0,1,2.18,2.22V80.47a2.2,2.2,0,0,1-2.18,2.21H116.43a2.19,2.19,0,0,1-2.17-2.21Z"/><path class="cls-2" d="M13,86.42A2.18,2.18,0,0,1,15,84.59h1.83a2.53,2.53,0,0,1,1.95,1.14l26.58,49.5h.23l26.58-49.5a2.53,2.53,0,0,1,2-1.14H76a2.18,2.18,0,0,1,2.06,1.83l13,77a2.1,2.1,0,0,1-2.18,2.52H75.3a2.32,2.32,0,0,1-2.17-1.83L68,128.7h-.23L48.49,165.82a2.69,2.69,0,0,1-1.94,1.26H44.48a2.5,2.5,0,0,1-1.94-1.26L23.17,128.7H23L17.9,164.1a2.23,2.23,0,0,1-2.17,1.83H2.21A2.1,2.1,0,0,1,0,163.41Z"/><path class="cls-2" d="M88.47,155.05l5.38-9.51c.92-1.49,3.1-1.26,3.9-.69.46.23,8.71,6.3,16.27,6.3,4.58,0,7.9-2.86,7.9-6.87,0-4.81-4-8.48-11.8-11.57-9.85-3.9-22.22-11.58-22.22-25.32,0-11.35,8.82-22.8,26.46-22.8,11.92,0,21.08,6.07,24.52,8.59,1.37.8,1.14,2.86.69,3.67l-5.85,8.82c-.8,1.26-2.86,2.29-3.89,1.49-1-.57-9.39-6.88-16.38-6.88-4.13,0-7.22,2.75-7.22,5.85,0,4.24,3.43,7.44,12.49,11.11s23.14,10.54,23.14,26.12c0,11.8-10.2,23.72-27,23.72-14.89,0-23.14-6.19-25.78-8.82C87.9,157.11,87.55,156.65,88.47,155.05Z"/><path class="cls-2" d="M141,87.91a2.26,2.26,0,0,1,2.17-2.18h13.64A2.18,2.18,0,0,1,159,87.91v28.87h32.77V87.91A2.18,2.18,0,0,1,194,85.73h13.63a2.26,2.26,0,0,1,2.18,2.18v75.84a2.25,2.25,0,0,1-2.18,2.18H194a2.18,2.18,0,0,1-2.18-2.18V133.62H159v30.13a2.17,2.17,0,0,1-2.17,2.18H143.2a2.25,2.25,0,0,1-2.17-2.18Z"/><path class="cls-2" d="M0,171.16A2.25,2.25,0,0,1,2.18,169H16.27a2.18,2.18,0,0,1,2.18,2.18v46.4c0,8,5.95,14.43,14.09,14.43a14.13,14.13,0,0,0,14.32-14.43v-46.4A2.18,2.18,0,0,1,49,169H63.13a2.25,2.25,0,0,1,2.17,2.18v47.31c0,17.42-14.66,31.85-32.76,31.85S0,235.89,0,218.47Z"/><path class="cls-2" d="M71.14,171.16A2.18,2.18,0,0,1,73.32,169h34.25a24.91,24.91,0,0,1,25,24.75c0,10.54-7,19-17,23l15.7,29.1a2.17,2.17,0,0,1-1.95,3.33H114.1a2.13,2.13,0,0,1-1.83-1L97,217.79h-7.9V247A2.25,2.25,0,0,1,87,249.18H73.32A2.18,2.18,0,0,1,71.14,247Zm34.94,32.07c4.7,0,8.71-4.35,8.71-9.16a8.78,8.78,0,0,0-8.71-8.71h-17v17.87Z"/><path class="cls-2" d="M130.71,238.29l5.39-9.51c.91-1.49,3.09-1.26,3.89-.68.46.23,8.71,6.3,16.27,6.3,4.58,0,7.9-2.87,7.9-6.88,0-4.81-4-8.47-11.8-11.57-9.85-3.89-22.22-11.57-22.22-25.32,0-11.34,8.82-22.8,26.46-22.8,11.92,0,21.08,6.08,24.52,8.6,1.38.8,1.15,2.86.69,3.66L176,188.92c-.8,1.26-2.86,2.29-3.89,1.48-1-.57-9.39-6.87-16.38-6.87-4.13,0-7.22,2.75-7.22,5.84,0,4.24,3.44,7.45,12.49,11.12S184.1,211,184.1,226.61c0,11.8-10.2,23.71-27,23.71-14.89,0-23.14-6.18-25.78-8.82C130.14,240.36,129.79,239.9,130.71,238.29Z"/><path class="cls-2" d="M195.78,185.82H179.4a2.18,2.18,0,0,1-2.18-2.17V171.16A2.18,2.18,0,0,1,179.4,169h50.86a2.17,2.17,0,0,1,2.18,2.18v12.49a2.17,2.17,0,0,1-2.18,2.17H213.88V247a2.25,2.25,0,0,1-2.17,2.18H198a2.25,2.25,0,0,1-2.18-2.18Z"/><path class="cls-2" d="M78.05,80.66A2.18,2.18,0,0,1,76,82.49H74.16a2.51,2.51,0,0,1-2-1.15L45.63,31.85H45.4L18.82,81.34a2.51,2.51,0,0,1-1.95,1.15H15A2.18,2.18,0,0,1,13,80.66L0,3.67A2.1,2.1,0,0,1,2.21,1.15H15.73A2.31,2.31,0,0,1,17.9,3l5.16,35.4h.23L42.54,1.26A2.66,2.66,0,0,1,44.48,0h2.07a2.48,2.48,0,0,1,1.94,1.26L67.86,38.38h.22l5-35.4A2.22,2.22,0,0,1,75.3,1.15H88.82A2.1,2.1,0,0,1,91,3.67Z"/></g></g></svg>