<svg xmlns="http://www.w3.org/2000/svg" viewBox="0 0 349.15 349.15"><defs><style>.cls-1{fill:#362a40;}</style></defs><g id="Layer_2" data-name="Layer 2"><g id="Layer_8" data-name="Layer 8"><path class="cls-1" d="M0,0V349.15H349.15V0ZM190,272.31c0,34-20,49.48-49,49.48-26.26,0-41.46-13.56-49.25-30l26.73-16.13c5.15,9.12,9.82,16.83,21.12,16.83,10.76,0,17.62-4.21,17.62-20.65V160.31H190v112Zm77.62,49.48c-30.47,0-50.19-14.49-59.78-33.51l26.74-15.43c7,11.46,16.21,19.95,32.34,19.95,13.56,0,22.29-6.78,22.29-16.21,0-11.22-8.89-15.2-23.93-21.82l-8.18-3.51c-23.69-10-39.36-22.75-39.36-49.49,0-24.62,18.78-43.33,48-43.33,20.89,0,35.85,7.25,46.6,26.27L286.8,201.07c-5.61-10-11.69-14-21.12-14s-15.66,6.08-15.66,14c0,9.82,6.08,13.8,20.18,20l8.18,3.51C306.29,236.46,322,248.69,322,276.12c0,29.46-23.22,45.67-54.32,45.67Z"/></g></g></svg>