<svg xmlns="http://www.w3.org/2000/svg" viewBox="0 0 349.15 349.15"><defs><style>.cls-1{fill:#362a40;}</style></defs><g id="Layer_2" data-name="Layer 2"><g id="Layer_14" data-name="Layer 14"><path class="cls-1" d="M37.8,113.61l71.45,195.7A149.8,149.8,0,0,1,37.8,113.61ZM275.66,167c0-18.51-6.62-31.32-12.32-41.32-7.6-12.32-14.71-22.81-14.71-35.12,0-13.8,10.42-26.61,25.13-26.61.63,0,1.27.07,2,.14A149.73,149.73,0,0,0,49.42,92.29c3.52.14,6.82.21,9.64.21C74.69,92.5,99,90.6,99,90.6c8.1-.5,9,11.4,1,12.31,0,0-8.1.92-17.11,1.41l54.56,162.19,32.8-98.27-23.3-63.92c-8.09-.49-15.7-1.41-15.7-1.41-8.09-.49-7.11-12.81.92-12.31,0,0,24.71,1.9,39.42,1.9,15.63,0,39.91-1.9,39.91-1.9,8.1-.5,9,11.4,1,12.31,0,0-8.1.92-17.11,1.41l54.13,161L264.4,215.4c6.33-20.69,11.26-35.55,11.26-48.36Zm-98.48,20.63L132.27,318.25a149.23,149.23,0,0,0,92-2.4,10.92,10.92,0,0,1-1.05-2ZM306,102.7a117.43,117.43,0,0,1,1,15.42c0,15.2-2.81,32.24-11.4,53.64L249.83,304A149.92,149.92,0,0,0,306,102.7Zm43.15,71.87c0,96.3-78.35,174.58-174.58,174.58S0,270.8,0,174.57,78.28,0,174.57,0,349.15,78.28,349.15,174.57Zm-8,0C341.13,82.71,266.37,8,174.57,8S8,82.71,8,174.57,82.78,341.13,174.57,341.13,341.13,266.44,341.13,174.57Z"/></g></g></svg>