<svg xmlns="http://www.w3.org/2000/svg" viewBox="0 0 358.1 349.15"><defs><style>.cls-1{fill:#362a40;}</style></defs><g id="Layer_2" data-name="Layer 2"><g id="Layer_18" data-name="Layer 18"><path class="cls-1" d="M119.77,281.14c0,1.44-1.66,2.59-3.75,2.59-2.38.22-4-.93-4-2.59,0-1.45,1.66-2.6,3.75-2.6C117.9,278.32,119.77,279.47,119.77,281.14Zm-22.45-3.25c-.5,1.44.94,3.1,3.11,3.53,1.87.73,4,0,4.47-1.44s-.94-3.1-3.1-3.75c-1.88-.51-4,.21-4.48,1.66Zm31.91-1.23c-2.09.5-3.54,1.88-3.32,3.54.22,1.44,2.1,2.38,4.26,1.87s3.54-1.87,3.32-3.32S131.33,276.44,129.23,276.66ZM176.74,0C76.6,0,0,76,0,176.16c0,80.07,50.39,148.58,122.37,172.7,9.25,1.66,12.49-4.05,12.49-8.74,0-4.48-.21-29.17-.21-44.33,0,0-50.54,10.83-61.15-21.51,0,0-8.23-21-20.07-26.43,0,0-16.54-11.33,1.15-11.12a38.13,38.13,0,0,1,27.87,18.63c15.81,27.87,42.31,19.85,52.63,15.09,1.66-11.55,6.35-19.57,11.55-24.33-40.36-4.48-81.08-10.32-81.08-79.78,0-19.85,5.49-29.82,17-42.52-1.87-4.69-8-24,1.88-49,15.09-4.7,49.82,19.49,49.82,19.49a170.47,170.47,0,0,1,90.68,0S259.69,70,274.78,74.8c9.89,25,3.76,44.33,1.88,49,11.55,12.78,18.63,22.74,18.63,42.52,0,69.67-42.53,75.23-82.89,79.78,6.65,5.7,12.28,16.53,12.28,33.5,0,24.33-.22,54.44-.22,60.36,0,4.69,3.32,10.39,12.49,8.73,72.2-24,121.15-92.48,121.15-172.55C358.1,76,276.88,0,176.74,0ZM70.18,249c-.94.72-.73,2.38.5,3.75,1.16,1.16,2.82,1.66,3.76.72.93-.72.72-2.38-.51-3.75C72.77,248.57,71.11,248.07,70.18,249Zm-7.8-5.85c-.51.94.21,2.09,1.66,2.82a2.15,2.15,0,0,0,3.1-.51c.51-.94-.21-2.09-1.66-2.82C64,242.22,62.88,242.44,62.38,243.16Zm23.39,25.7c-1.16.94-.72,3.11.94,4.48,1.66,1.66,3.75,1.87,4.69.72.94-.94.51-3.1-.94-4.48C88.87,267.92,86.71,267.71,85.77,268.86Zm-8.23-10.61c-1.16.72-1.16,2.6,0,4.26s3.1,2.38,4,1.66c1.16-.94,1.16-2.82,0-4.48s-2.89-2.38-4-1.44Z"/></g></g></svg>