<svg id="Layer_22" data-name="Layer 22" xmlns="http://www.w3.org/2000/svg" viewBox="0 0 307.02 349.15"><defs><style>.cls-1{fill:#362a40;}.cls-2{fill:#281f30;}.cls-3{fill:#fff;}</style></defs><path class="cls-1" d="M365.4,143.41a3.38,3.38,0,0,0-3-2.84l-28.11-2.09s-18.63-18.5-20.68-20.55-6-1.43-7.59-1l-10.43,3.22C289.31,102.26,278.32,85.8,259,85.8c-.53,0-1.08,0-1.63,0-5.5-7.27-12.31-10.42-18.19-10.42-45,0-66.54,56.29-73.29,84.89l-31.51,9.78c-9.77,3.06-10.08,3.37-11.36,12.57-1,7-26.52,204.6-26.52,204.6l199.13,37.31,107.89-23.35S365.64,145.16,365.4,143.41Zm-80.87-19.83-16.85,5.22c0-1.19,0-2.36,0-3.63,0-11.14-1.54-20.1-4-27.21C273.63,99.21,280.26,110.54,284.53,123.58Zm-33.22-23.41c2.77,6.94,4.57,16.89,4.57,30.33,0,.69,0,1.32,0,1.95l-34.8,10.78C227.77,117.37,240.33,104.88,251.31,100.17ZM237.93,87.5a10.18,10.18,0,0,1,5.78,2c-14.43,6.79-29.9,23.9-36.43,58.05L179.77,156C187.42,130,205.59,87.5,237.93,87.5Z" transform="translate(-96.49 -75.43)"/><path class="cls-2" d="M362.35,140.57l-28.11-2.09s-18.63-18.5-20.68-20.55a5.06,5.06,0,0,0-2.87-1.32l-15.06,308,107.88-23.34S365.64,145.16,365.4,143.41A3.38,3.38,0,0,0,362.35,140.57Z" transform="translate(-96.49 -75.43)"/><path class="cls-3" d="M259,200.19l-13.3,39.57a61.24,61.24,0,0,0-25.95-6.22c-20.94,0-22,13.15-22,16.46,0,18.08,47.12,25,47.12,67.33,0,33.31-21.13,54.76-49.61,54.76-34.19,0-51.67-21.27-51.67-21.27l9.16-30.24S170.7,336,185.87,336a13.36,13.36,0,0,0,13.93-13.49c0-23.58-38.65-24.63-38.65-63.38,0-32.6,23.4-64.16,70.65-64.16C250,195,259,200.19,259,200.19Z" transform="translate(-96.49 -75.43)"/></svg>