<svg xmlns="http://www.w3.org/2000/svg" viewBox="0 0 437.01 302.05"><defs><style>.cls-1{fill:#362a40;}</style></defs><g id="Layer_2" data-name="Layer 2"><g id="Layer_11" data-name="Layer 11"><path class="cls-1" d="M176.16,160.68,43.45,293.38a16.38,16.38,0,0,1-23.17,0L4.8,277.91a16.39,16.39,0,0,1,0-23.15L109.94,149.09,4.77,43.43a16.39,16.39,0,0,1,0-23.15L20.28,4.8a16.38,16.38,0,0,1,23.17,0L176.16,137.5A16.39,16.39,0,0,1,176.16,160.68ZM437,285.66V263.81a16.38,16.38,0,0,0-16.38-16.39H213a16.38,16.38,0,0,0-16.38,16.39v21.85A16.38,16.38,0,0,0,213,302.05H420.63A16.38,16.38,0,0,0,437,285.66Z"/></g></g></svg>