<svg xmlns="http://www.w3.org/2000/svg" viewBox="0 0 258.64 349.15"><defs><style>.cls-1{fill:#362a40;}</style></defs><g id="Layer_2" data-name="Layer 2"><g id="Layer_2-2" data-name="Layer 2"><path class="cls-1" d="M40.21,129.22c-.75,6.81,3.54,13,3.54,13a33.7,33.7,0,0,1,2.73-11.32c.27,7,2.18,16,8.72,23.24,4.71,5.18,24.27,15.88,37.42,4.16a53,53,0,0,1,2,5.79c2,7-1.85,17.25-1.85,17.25s10.3-11.66,9.48-22.15c7.36-.34,14.58-5.73,14.38-13.29,0,0-12.88,7.08-24.2-6-6.61-7.63-27.87-28.63-56.63-21.67a77.35,77.35,0,0,1,9.2,2.79H45c-2.86,1.36-4.43,4.84-4.77,8.18ZM59.5,128c13.29,7.5,25.49,17.52,30.6,25.22-3.89,2.25-14.79,7.09-25.9-1.16C57.18,146.87,57.52,134.19,59.5,128Zm96.84,31.22c-.81,10.56,9.48,22.15,9.48,22.15S162,171.13,164,164.11a55.59,55.59,0,0,1,2-5.79c13.16,11.79,32.72,1,37.35-4.16,6.54-7.22,8.38-16.22,8.72-23.24a32.09,32.09,0,0,1,2.73,11.32s4.36-6.21,3.54-13c-.41-3.41-2-6.82-4.77-8h-.07a58.83,58.83,0,0,1,9.21-2.8c-28.83-6.95-50,14-56.64,21.68-11.38,13.08-24.19,6-24.19,6-.14,7.43,7.08,12.88,14.44,13.16ZM199.08,128c2,6.2,2.31,18.88-4.77,24.13-11.11,8.25-21.95,3.41-25.83,1.09C173.59,145.44,185.79,135.49,199.08,128Zm-91.6,157.44h-20c-3.75,0-5.59,1.09-6.47,2-1.3,1.37-1.5,3.21-.62,5.52,2.39,6.21,7.77,11.25,9.34,12.68a12.52,12.52,0,0,0,8,2.93,10.14,10.14,0,0,0,7.5-3.13,51.48,51.48,0,0,0,8.86-13.5,4.3,4.3,0,0,0-.61-4.63c-1.23-1.23-3.21-1.84-6-1.84Zm128.94-69c-1.63,12.19-8.86,23-16.76,29.78-2.11-15.47-2.52-37.83-2.52-42.53,0-10,6.47-16.7,8.31-17.79s3.68-2,5.66-3.13c12.27-6.55,27.53-14.72,27.53-29.79,0-11-6.34-15.81-10.49-18.94-.55-.41-1-.75-1.5-1.16-1.43-1.16-2.52-2.05-2.93-3-3-6.68-2.46-23.31-1.16-25.63.41-.4,11.38-14.24,8-26.71A18.21,18.21,0,0,0,241,66a32,32,0,0,0-13.29-3.06,28,28,0,0,0-.61-4,18.73,18.73,0,0,1-.62-5.52c.28-3.2.55-6.13,1.5-7.7,5.73-9.06,19.63-12,19.77-12L256.12,32l-5.52-6.47c-.07-.14-11.79-11.93-31.55-11.93a53.79,53.79,0,0,0-16.43,2.66C186.13,21.6,173.38,37.08,169,43.07q-3.16-1-6.54-1.84C159.55,30.46,168.54,15,168.54,15s-9.27-2-23,10.36c-1.78-4.43-5.52-14-1.23-25.35C124.24,7.09,119.2,17.92,117.7,27.74c-5.18-3.68-4.57-15.75-4.91-18.81-5.11.61-19.9,14.92-19.22,32.92-1.36.34-2.65.75-4,1.15-4.43-6-17.1-21.46-33.66-26.78A61.2,61.2,0,0,0,39.6,13.84,46.67,46.67,0,0,0,8,25.76L2.52,32.17,10.9,33.8c.14,0,14,2.93,19.77,12,.95,1.5,1.23,4.5,1.5,7.7A21.39,21.39,0,0,1,31.56,59a25.49,25.49,0,0,0-.62,4,31.91,31.91,0,0,0-13.29,3.07A18.23,18.23,0,0,0,8,77.69c-3.41,12.41,7.64,26.24,8,26.72,1.3,2.32,1.84,19-1.15,25.63-.41,1-1.5,1.84-2.93,3-.48.34-1,.75-1.5,1.15-4.16,3.14-10.5,8-10.5,18.95,0,15.06,15.27,23.24,27.53,29.78,2,1.09,4,2.12,5.66,3.14s8.32,7.77,8.32,17.79c0,4.7-.41,27.05-2.53,42.52-7.9-6.74-15.13-17.65-16.76-29.85,0,0-19.9,15.41-14,48.26,3.54,20.1,15.81,31.41,32,37.28,6,13,20,31.14,45.87,33.8,9.81,8,23.44,13.29,43.34,13.29h.14c19.83,0,33.46-5.25,43.35-13.29,25.83-2.66,39.86-20.79,45.86-33.8,16.22-5.93,28.42-17.18,32-37.28,5.59-33-14.38-48.32-14.38-48.32ZM206.78,25.9a39.34,39.34,0,0,1,12.06-1.84,44.18,44.18,0,0,1,16.83,3.41,53.39,53.39,0,0,0-6.61,3.61,38.38,38.38,0,0,0-6.27-.55,33.8,33.8,0,0,0-19.56,6.07c-8.38,5.93-12.26,11.52-14.1,15.26-1.5-.88-3.07-1.7-4.84-2.52-1.09-.54-2.12-1-3.21-1.5,4.16-6.2,13.57-18.06,25.7-21.94Zm14.31,12.4a24.64,24.64,0,0,0-1.57,2.18c-2.25,3.55-2.66,7.91-3,12.13s-.75,8.52-3,11.59c-2.86.55-5.52,1.16-7.83,1.84a46.34,46.34,0,0,0-7.16-7.63c1-3.27,3.75-11,9.2-15.34a23.13,23.13,0,0,1,13.36-4.77ZM29.51,31.08a39.66,39.66,0,0,0-6.61-3.61,44.22,44.22,0,0,1,16.83-3.41A39.78,39.78,0,0,1,51.8,25.9c12.13,4,21.53,15.81,25.69,21.88-1.09.47-2.18.95-3.27,1.49-1.7.82-3.34,1.71-4.84,2.53-1.77-3.68-5.66-9.34-14.11-15.27a34,34,0,0,0-19.63-6.07A47.25,47.25,0,0,0,29.51,31.08ZM60,58.41A41.15,41.15,0,0,0,52.82,66c-2.32-.61-5-1.29-7.84-1.84-2.25-3-2.59-7.16-2.93-11.52s-.75-8.58-3-12.13a24.64,24.64,0,0,0-1.57-2.18,22.16,22.16,0,0,1,13.29,4.77C56.23,47.43,59,55.14,60,58.41ZM38,177.34c-1.84-1.1-3.82-2.12-5.73-3.14-10.15-5.45-20.58-11.11-20.58-20.79,0-7.56,2.93-9.95,6.07-12.4l.34-.27c.48-.41.95-.82,1.5-1.23-.62,4.91-1.3,9.06-1.84,10.15,0,0,8.24-10.22,10.7-30.19,1-7.83-.75-23.37-3.48-29.3a93.28,93.28,0,0,1-.2,9.81,8,8,0,0,0-.89-1.5c-2.18-2.72-8-11.93-6.4-18.13A8,8,0,0,1,22.08,75a23,23,0,0,1,10.29-2c8.39,0,17.65,2.52,22.43,4.09,17.1,5.45,37.75,21.06,43.68,25.69a1.3,1.3,0,0,0,.27.21l3.82,2.66-2.38-4c-.14-.2-13-21.4-36.26-31.69,1.36-2,5-5.52,14.72-10.29C93.23,52.61,110.34,49,129.29,49s36.05,3.61,50.64,10.77c9.67,4.7,13.35,8.32,14.72,10.29-23.18,10.29-36.06,31.49-36.19,31.69l-2.39,4,3.82-2.66a1.3,1.3,0,0,0,.27-.21c5.93-4.63,26.58-20.31,43.69-25.69,4.77-1.5,14-4.09,22.42-4.09a23,23,0,0,1,10.29,2,8.52,8.52,0,0,1,4.57,5.31c1.7,6.2-4.16,15.41-6.41,18.13a6.6,6.6,0,0,0-.89,1.5,93.28,93.28,0,0,1-.2-9.81c-2.73,6-4.43,21.47-3.48,29.3,2.46,20,10.7,30.19,10.7,30.19-.54-1.09-1.22-5.24-1.84-10.15.48.41,1,.82,1.5,1.23l.34.27c3.14,2.52,6.07,4.84,6.07,12.4,0,9.68-10.5,15.34-20.58,20.79-2,1-3.89,2.11-5.73,3.14-5.93,3.4-12.26,11.38-13,23.3-.62,10,.61,34,2.31,51.73-8.45,3.27-18.19,4.36-27,4.64a81.08,81.08,0,0,1-3.75-8.93c-.48-1.36-13.36-34.83-18-42.39,3.75,26.58,11.93,50.23,16,61.06a56.41,56.41,0,0,0-8-.47H89.42a68.61,68.61,0,0,0-8,.47c4.09-10.83,12.34-34.48,16-61.06-4.64,7.63-17.52,41.09-18,42.39A83.06,83.06,0,0,1,75.72,257c-8.86-.28-18.54-1.37-27.06-4.64,1.71-17.72,2.93-41.71,2.32-51.73-.61-11.86-7-19.9-12.95-23.3ZM22.15,276c-8.25-13.63-5.93-36.87-2.52-40.28,7.43,23.45,32.17,30.2,50.7,31-1.84,2.86-3.54,5.18-4.77,6.81l-1,1c-4.91,5.31-5.86,12.6-2.79,21.67C46.34,296,30.26,289.38,22.15,276ZM53.3,305.6A126.19,126.19,0,0,0,66,307.24,97.29,97.29,0,0,0,74.36,323,47.48,47.48,0,0,1,53.3,305.6Zm76,34.14c-41.3-.06-53.37-31.21-57.87-44.09q-3.78-10.74.62-15.74c2-2.25,6.47-4.91,16.76-4.91h81c10.29,0,14.86,2.66,16.77,4.91,2.86,3.27,3.06,8.58.61,15.74C182.65,308.46,170.59,339.68,129.29,339.74ZM184.22,323a96.46,96.46,0,0,0,8.38-15.74,126.39,126.39,0,0,0,12.68-1.64A47.54,47.54,0,0,1,184.22,323Zm52.2-47c-8.17,13.43-24.26,20-39.59,20.24,3.06-9.06,2.11-16.42-2.8-21.67a12.64,12.64,0,0,0-.95-1c-1.23-1.64-2.93-3.95-4.77-6.82,18.54-.81,43.28-7.49,50.7-30.94,3.41,3.41,5.73,26.65-2.59,40.21ZM129.22,128.13h.14C138,128.06,147.89,116,147.89,116a36.3,36.3,0,0,1-18.6,5.65A36.33,36.33,0,0,1,110.68,116s9.88,12,18.54,12.13Zm42.05,157.23h-20c-2.86,0-4.9.61-6.06,1.84a4.17,4.17,0,0,0-.62,4.56,48.46,48.46,0,0,0,8.86,13.16,10.09,10.09,0,0,0,7.5,3.07,12.72,12.72,0,0,0,8-2.87c1.57-1.36,7-6.27,9.34-12.33.89-2.25.68-4.09-.61-5.39-.89-.88-2.73-2-6.41-2Z"/></g></g></svg>