<svg xmlns="http://www.w3.org/2000/svg" viewBox="0 0 443.07 271.37"><defs><style>.cls-1{fill:#362a40;}</style></defs><g id="Layer_2" data-name="Layer 2"><g id="Layer_4" data-name="Layer 4"><path class="cls-1" d="M219,271.37a9.07,9.07,0,0,1-4.22-1.11l-13.29-7.89c-2-1.11-1-1.52-.35-1.73a24.38,24.38,0,0,0,6-2.77,1.16,1.16,0,0,1,1,.07L218.35,264a1.32,1.32,0,0,0,1.25,0l40-23.12a1.3,1.3,0,0,0,.62-1.11V193.63a1.16,1.16,0,0,0-.62-1.11l-40-23.06a1.38,1.38,0,0,0-1.25,0l-40,23.06a1.25,1.25,0,0,0-.63,1.11V239.8a1.28,1.28,0,0,0,.63,1l10.93,6.3c6,3,9.63-.55,9.63-4V197.5a1.16,1.16,0,0,1,1.17-1.17h5.06a1.16,1.16,0,0,1,1.17,1.17v45.62c0,8-4.29,12.47-11.83,12.47-2.29,0-4.16,0-9.21-2.5l-10.52-6a8.53,8.53,0,0,1-4.23-7.27V193.63a8.32,8.32,0,0,1,4.23-7.27l40-23.13a8.62,8.62,0,0,1,8.38,0l40,23.13a8.55,8.55,0,0,1,4.23,7.27V239.8a8.32,8.32,0,0,1-4.23,7.27l-40,23.12a7.61,7.61,0,0,1-4.16,1.18Zm32.33-45.55c0-8.66-5.81-10.94-18.13-12.6s-13.71-2.49-13.71-5.4c0-2.43,1-5.61,10.24-5.61,8.24,0,11.29,1.8,12.53,7.34a1.12,1.12,0,0,0,1.11.9h5.19a1.16,1.16,0,0,0,.84-.35,1.1,1.1,0,0,0,.27-.9c-.83-9.55-7.13-14-19.94-14-11.42,0-18.2,4.84-18.2,12.87,0,8.8,6.78,11.15,17.72,12.26,13.08,1.31,14.12,3.18,14.12,5.74,0,4.5-3.6,6.37-12,6.37-10.6,0-13-2.63-13.71-7.89a1.14,1.14,0,0,0-1.18-1h-5.19a1.18,1.18,0,0,0-1.18,1.18c0,6.71,3.67,14.74,21.19,14.74,12.8,0,20.07-5,20.07-13.7ZM289,191.13a7.68,7.68,0,1,1-7.68-7.68A7.62,7.62,0,0,1,289,191.13Zm-1.24,0a6.48,6.48,0,1,0-6.51,6.51A6.6,6.6,0,0,0,287.79,191.13Zm-3.12,4.3h-1.8c-.07-.42-.34-2.64-.34-2.7-.14-.49-.28-.77-.9-.77H280.1v3.47h-1.66v-8.66h3c1,0,3,0,3,2.29a2,2,0,0,1-1.66,2.14c1.18.07,1.25.83,1.46,1.94a9.71,9.71,0,0,0,.41,2.29Zm-1.94-6.1c0-1.17-.83-1.17-1.24-1.17H280.1v2.42h1.32A1.16,1.16,0,0,0,282.73,189.33ZM95.05,90.68a5,5,0,0,0-2.56-4.43L50.05,61.81a5.54,5.54,0,0,0-2.35-.69h-.42a4.92,4.92,0,0,0-2.35.69L2.56,86.25A5.12,5.12,0,0,0,0,90.68l.07,65.77a2.61,2.61,0,0,0,1.25,2.21,2.41,2.41,0,0,0,2.56,0l25.2-14.46a5.22,5.22,0,0,0,2.56-4.44V109a5.12,5.12,0,0,1,2.56-4.43l10.73-6.17a5,5,0,0,1,2.56-.69,4.78,4.78,0,0,1,2.56.69l10.73,6.17A5.11,5.11,0,0,1,63.35,109v30.73a5.11,5.11,0,0,0,2.56,4.44l25.2,14.46a2.41,2.41,0,0,0,2.56,0,2.54,2.54,0,0,0,1.24-2.21l.14-65.77ZM327.11,18.89V141a5.12,5.12,0,0,1-2.56,4.43L282.11,170a5.19,5.19,0,0,1-5.12,0l-42.44-24.51A5.12,5.12,0,0,1,232,141V92a5.12,5.12,0,0,1,2.56-4.43L277,63.06a5.19,5.19,0,0,1,5.12,0l10.59,6.09a1.81,1.81,0,0,0,2.7-1.52V2.55A2.54,2.54,0,0,1,299.21.34l25.27,14.12a5,5,0,0,1,2.63,4.43Zm-31.85,89.24a1.3,1.3,0,0,0-.62-1.11L280.1,98.57a1.51,1.51,0,0,0-1.31,0L264.25,107a1.16,1.16,0,0,0-.62,1.11V125a1.31,1.31,0,0,0,.62,1.11l14.54,8.37a1.3,1.3,0,0,0,1.24,0l14.54-8.37a1.18,1.18,0,0,0,.63-1.11V108.13Zm145.25-.49a5.12,5.12,0,0,0,2.56-4.43V91.37a5.12,5.12,0,0,0-2.56-4.43l-42.16-24.5a5.21,5.21,0,0,0-5.13,0l-42.43,24.5a5.1,5.1,0,0,0-2.56,4.43v49a5,5,0,0,0,2.56,4.43l42.16,24a5.06,5.06,0,0,0,5.05,0l25.48-14.19a2.54,2.54,0,0,0,0-4.43l-42.72-24.51a2.54,2.54,0,0,1-1.31-2.21V108.13a2.57,2.57,0,0,1,1.31-2.22l13.3-7.68a2.41,2.41,0,0,1,2.56,0l13.29,7.68a2.73,2.73,0,0,1,1.31,2.22v12a2.6,2.6,0,0,0,3.88,2.22l25.41-14.75ZM387,110.07a1.05,1.05,0,0,0-.48.83v9.41a1,1,0,0,0,.48.83l8.17,4.71a.83.83,0,0,0,1,0l8.17-4.71a1,1,0,0,0,.49-.83V110.9a.94.94,0,0,0-.49-.83l-8.17-4.71a.83.83,0,0,0-1,0ZM211,140.18V91.44a5.26,5.26,0,0,0-2.7-4.43L166,62.64a5.19,5.19,0,0,0-5.12,0L118.59,87a5.17,5.17,0,0,0-2.7,4.43v48.74a5.34,5.34,0,0,0,2.77,4.43L161,169a5,5,0,0,0,5.12,0l42.23-24.37a5.11,5.11,0,0,0,2.49-3.25,6.06,6.06,0,0,0,.14-1.18ZM159.57,53.71l-.55.35h.76Zm52.76,90.14-.28-.49V144l.28-.14Z"/></g></g></svg>