<svg xmlns="http://www.w3.org/2000/svg" viewBox="0 0 178.18 394.32"><defs><style>.cls-1{fill:#362a40;}</style></defs><g id="Layer_2" data-name="Layer 2"><g id="Layer_1-2" data-name="Layer 1"><path class="cls-1" d="M152.12,301.2l-10.86,18.95-3.55,61.77c0,6.85-21.79,12.4-48.6,12.4s-48.6-5.55-48.6-12.4l-4.46-61.15L24.57,301.2C56.3,314.53,121.62,314.06,152.12,301.2ZM1.16,106.11l10.47,96.66c4.54-15.4,16-36.2,30.81-42.52,4.85-2.07,9.78-2.07,14.4.7,4,2.31,7.4,7.16,7.78,9.09.92,5-1.54,7-3.47,7-2.31,0-4.08-3.55-5.23-5.63-3.16-5.62-7.94-5.85-13-2.15-5.31,3.85-9.94,10.32-13.17,15.94a91.15,91.15,0,0,0-9.24,21.72c-1.16,4.31-2.24,11.24-.46,15.33C20.8,224,22,225,23.8,225c3.85,0,9.47-5.08,12.17-7.78,3.46-3.47,7.93-8.86,9.63-12.32l4-11.94c2-5.24,7.63-4.31,7.63,0,0,7.85-2.85,10.47-7.71,26.72-4.46,15-5.85,19.88-5.85,19.88-.54,2.15-2.62,5.77-4.85,5.77a2.2,2.2,0,0,1-2-.92c-.77-1.08-.7-4.08-.62-4.85.15-2.47,4.85-17.1,5.62-19.41-1.54,1.69-3.16,3.39-4.93,5.08-4.16,3.93-10.86,9.09-16.56,9.09a9.37,9.37,0,0,1-5.93-1.85l5.86,61.31C21.8,297.66,50.45,307,88.19,307s66.47-9.4,67.93-13.17l8.4-72.86c-4.39,4-9.48,8.93-15.1,11.4-4.16,1.77-13.4,2.92-13.4-4.39,0-4,7-11.4,11.09-16.56,1.08-1.31,3.62-4.55,3.62-6.24,0-2.24-4.62-1.7-9,1.92a44.11,44.11,0,0,0-6.7,7.47,62,62,0,0,0-6.55,11.94c-4.77,10.94-3.16,6.63-7,16.95s-3.23,9.09-4,10.78a7.6,7.6,0,0,1-3.08,3.47,4.64,4.64,0,0,1-4.7-.24c-.7-.46-1-1.46-1-2.85a9.12,9.12,0,0,1,.23-2.07c1.15-4.7,6-13.95,11.55-26.42,1.23-2.85.77-2,.62-1.77-4.78,4.62-8.4,6.85-11.09,8.08-4.47,2-10,2-11.17-3.15-.08-.31-.08-.62-.16-.93-9.09,7.09-18.71,9-15.4-6.24-3.54,6.32-9.71,11.48-17.25,11.48-3.16,0-5.47-1.08-6.63-3.93-1.77-4.24,1-11.48,3.55-18.33,1.31-3.47,3.08-7.63,5.46-12.48,1.24-2.62,3.24-4.16,5.86-3.46a5.27,5.27,0,0,1,1.23.54c2,1.38,1.23,3.46.23,5.54-2.93,5.78-5.47,10-7.16,16-.69,2.54-1.54,6.93,1.15,6.93A8.88,8.88,0,0,0,75,222.56a32.91,32.91,0,0,0,8.55-10.39,52.63,52.63,0,0,0,4.31-9.48A26.37,26.37,0,0,1,89.27,199c.84-1.93,2-3.93,4-3.93a3,3,0,0,1,2.47,1.15c1.31,1.7,1,3.47.3,5.32-1.54,4.31-3.62,8.16-5.31,12.86a28.46,28.46,0,0,0-2.08,9c0,2.62,2.85,2,5.24.93a23.84,23.84,0,0,0,5.24-3.47c.92-3.77.69-2.93,20.33-52.53,1-2.54,2.85-3.62,4.7-3.62a4.14,4.14,0,0,1,2.46.85c1.31,1,1.31,3.16.77,4.77s-.46,1-3.46,8.09c-4,9.32-6.63,16-10.17,24.57-1.46,3.54-5.93,14.56-6.7,17.18-.46,1.69-1,4.46.77,4.46,4.16,0,14.86-10.09,17.79-13.09a1.55,1.55,0,0,1,.69-.46c.47-1.47.93-2.85,1.31-4.24,1.08-2.92,2.08-6.31,4.09-8.7a2.72,2.72,0,0,1,2.07-1.23c2.16,0,3.24.92,3.24,3.08a25.7,25.7,0,0,1-.85,4.77c1.08-1.15,2.24-2.31,3.47-3.46,11.55-10.71,19.79-5.24,19.79.15,0,5.7-6.85,13.63-10.63,18-1.23,1.47-3.77,4.16-3.85,4.93,0,1,.7,1.39,1.7,1.39,1.54,0,4.93-2.7,6.16-3.62,3.85-3,9.09-7.63,12.78-10.86L177,106C153.5,119.13,24.8,119.2,1.16,106.11Zm176.91-6.55c0,16.18-178.07,16.18-178.07,0,0-6.78,39.9-12.24,89-12.24,6.93,0,13.71.07,20.25.3L119,50.12,166.21.44c1.08-1.08,4.47-.16,7.63,2.69s5.08,6.09,4.08,7.17l-.08.07L133.71,57,126,88.32C156.74,90.32,178.07,94.56,178.07,99.56Zm-53.45,3.55c0-.62-.69-1.16-1.93-1.62l-.15.61c0,1-3.85,1.85-8.55,1.85s-8.55-.84-8.55-1.85a.28.28,0,0,1,.08-.23l.15-.54c-1.38.47-2.31,1.08-2.31,1.78,0,1.61,4.78,2.85,10.55,2.85,5.93.07,10.71-1.24,10.71-2.85Z"/></g></g></svg>