<svg xmlns="http://www.w3.org/2000/svg" viewBox="0 0 443.89 190"><defs><style>.cls-1{fill:#362a40;}</style></defs><g id="Layer_2" data-name="Layer 2"><g id="Layer_10" data-name="Layer 10"><path class="cls-1" d="M425,69.3c0-14.22,2.22-22.62,2.22-37.88C427.17,7.7,418.43.07,399.08.07H384.86V16.86h4.37c9.85,0,12,3.26,12,15.33,0,11.3-1.11,22.61-1.11,35.72,0,16.79,5.48,23.31,16.37,25.88V94.9c-11,2.56-16.37,9.08-16.37,25.87,0,13.11,1.11,23.72,1.11,35.73,0,12.41-2.57,15.67-12,15.67v.35h-4.37V190h14.22c19.28,0,28.09-7.63,28.09-31.35,0-15.68-2.22-23.73-2.22-37.88,0-7.63,4.72-15.68,18.94-16.37V85.46C429.67,85,425,76.93,425,69.3ZM351.7,91.5c-11-4.37-21.16-6.94-21.16-14.22,0-5.48,4.37-8.74,12.42-8.74s15.33,3.26,23.31,9.08l14.56-19.28c-9.08-6.94-21.5-14.22-38.29-14.22C317.78,44.12,301,58.34,301,78.39c0,17.82,15.68,27,28.79,32,11.3,4.37,22.26,8,22.26,15.33,0,5.48-4.37,9.09-14.22,9.09-9.08,0-18.24-3.67-28.09-11.3L295.16,144.7c11,9.09,27.68,15.33,41.55,15.33,29.14,0,44.82-15.33,44.82-35.37S365.92,96.21,351.7,91.5Zm-249,41.2c-2.56,0-5.82-2.22-5.82-9.09V0H45.16C25.46,0,16.72,7.63,16.72,31.35c0,15.68,2.22,24.42,2.22,37.88,0,7.63-4.72,15.68-18.94,16.37v18.94c14.22.34,18.94,8.39,18.94,16,0,13.46-2.22,21.51-2.22,37.18,0,23.73,8.74,31.36,28.09,31.36H59V172.31H54.66c-9.08,0-12-3.68-12-15.68s1.11-22.26,1.11-35.72c0-16.79-5.48-23.31-16.37-25.88V93.92c11-2.56,16.37-9.08,16.37-25.87,0-13.11-1.11-23.72-1.11-35.72S45.23,17,54.66,17h9.78V121.6c0,22.27,7.63,36.84,29.9,36.84a47.66,47.66,0,0,0,16.37-2.57L107,132.15a14.77,14.77,0,0,1-4.31.55ZM263.46,91.5C252.15,87.13,242,84.56,242,77.28c0-5.48,4.37-8.74,12.41-8.74s15.33,3.26,23.31,9.08l14.57-19.28C283.16,51.4,270.74,44.12,254,44.12c-24.77,0-41.55,14.22-41.55,34.27,0,17.82,15.67,27,28.78,32,11.31,4.37,22.27,8,22.27,15.33,0,5.48-4.37,9.09-14.22,9.09-9.09,0-18.24-3.67-28.09-11.3L206.93,144.7c11,9.09,27.67,15.33,41.55,15.33,29.13,0,44.81-15.33,44.81-35.37S277.68,96.21,263.46,91.5ZM155.94,43.77c-26.64,0-52.1,22.27-51.4,57.23,0,36.07,23.72,57.23,55,57.23,13.11,0,27.68-4.72,39-12.42l-11-19.28c-8,4.71-15.68,6.93-23.72,6.93-14.57,0-25.88-6.93-28.79-23.72h66a95.55,95.55,0,0,0,1.11-13.46c.42-29.55-15.68-52.51-46.27-52.51ZM135.13,89.69c2.22-14.56,11-21.5,21.16-21.5,13.11,0,18.24,9.09,18.24,21.5Z"/></g></g></svg>