<svg xmlns="http://www.w3.org/2000/svg" viewBox="0 0 349.15 349.15"><defs><style>.cls-1{fill:#362a40;}</style></defs><g id="Layer_2" data-name="Layer 2"><g id="Layer_21" data-name="Layer 21"><path class="cls-1" d="M103.78,161.21c-5.25-5.59-13.43-5.25-16.91,1.91L1.09,334.28a10.25,10.25,0,0,0,9.13,14.8H129.56a9.84,9.84,0,0,0,9.14-5.73C164.54,290.3,149,209.49,103.78,161.21ZM166.66,5.53c-83.4,131.88-5.8,237.72,44.32,337.89a10.22,10.22,0,0,0,9.14,5.73H338.91a10.22,10.22,0,0,0,9.14-14.8S188.14,13.44,184.11,5.46C180.5-1.76,171.29-1.9,166.66,5.53Z"/></g></g></svg>