<svg xmlns="http://www.w3.org/2000/svg" viewBox="0 0 328.74 349.15"><defs><style>.cls-1{fill:#362a40;}</style></defs><g id="Layer_2" data-name="Layer 2"><g id="Layer_16" data-name="Layer 16"><path class="cls-1" d="M247.28,164.87a28.22,28.22,0,0,1,7.23,0c1.29-3,1.52-8.11.35-13.7-1.74-8.29-4.08-13.33-8.93-12.54s-5,6.8-3.3,15.1a28,28,0,0,0,4.67,11.14Zm-41.65,6.59c3.47,1.56,5.6,2.54,6.44,1.66,1.47-1.51-2.71-7.3-9.43-10.18a24.43,24.43,0,0,0-23.8,2.86c-2.34,1.7-4.52,4.06-4.21,5.49.66,2.91,7.78-2.11,17.57-2.71a28.37,28.37,0,0,1,13.43,2.89Zm-7,4c-7.06,1.11-11.67,5.08-10.48,7.86.7.26.91.62,4-.63a28.68,28.68,0,0,1,14.56-1.52c2.27.26,3.35.4,3.84-.38,1.14-1.73-4.44-6.22-12-5.33Zm42.12,13.3c2.63-5.34-8.47-10.83-11.12-5.44s8.49,10.79,11.14,5.42Zm12.18-15.92c-6-.1-6.18,12.29-.2,12.39s6.2-12.3.22-12.41ZM82.79,234.19c-1,.24-4.67,1.12-6.59-1.83-4-6.22,8.64-15.85,2.34-27.82C71.46,191,56.9,194,51.28,200.23c-6.77,7.47-6.78,18.31-3.89,18.73,3.32.44,3.17-5,5.74-9A10,10,0,0,1,66.93,207L67,207c9,5.91,1.07,13.81,1.77,22.26,1.09,13,14.33,12.73,16.79,7a1.62,1.62,0,0,0-.16-1.81c0,.69.53-1-2.6-.31Zm233.08-13.28a127.48,127.48,0,0,0-5.28-16c1.91-2.85,11.89-18.66-2.38-33.63-8.09-8.49-26.37-12.86-32-14.42-1.16-8.85,3.62-45.64-16.73-64.54,16.17-16.76,26.25-35.22,26.23-51-.05-30.46-37.44-39.66-83.54-20.59l-9.75,4.15S174.79,7.55,174.52,7.32C122-38.5-42.3,144.1,10.23,188.45l11.48,9.73a56.36,56.36,0,0,0-3.19,26c2.61,26,28,47,52.51,47,44.9,103.47,208.33,103.64,250.63,2.33,1.35-3.48,7.08-19.14,7.08-33s-7.84-19.65-12.85-19.65ZM70.13,258.36c-17.75-.47-36.91-16.44-38.81-35.39-4.8-47.67,57.75-58.53,65.32-9.59,3.53,23.05-3.63,45.49-26.53,45Zm-14.39-88.8A45.09,45.09,0,0,0,27.2,187.79c-3.8-3.16-10.89-9.33-12.13-11.66C5,156.8,26.15,119.36,41,98.2,77.6,45.92,135,6.35,161.54,13.53c4.32,1.22,18.62,17.8,18.62,17.8A373,373,0,0,0,129,66.6c-33.17,25.54-58.24,62.67-73.25,103ZM241.5,248.21s-27.79,4.13-54.05-5.49c4.82-15.68,21,4.74,75-10.74,11.89-3.41,27.51-10.11,39.66-19.72a79.87,79.87,0,0,1,5.54,18.89c2.84-.52,11.08-.41,8.89,14.07-2.56,15.45-9.12,28-20.16,39.54a83.25,83.25,0,0,1-24.22,18.12,103.15,103.15,0,0,1-15.82,6.68c-41.61,13.59-84.22-1.36-98-33.44a53.19,53.19,0,0,1-2.76-7.58c-5.85-21.15-.88-46.52,14.65-62.5a5.63,5.63,0,0,0,1.93-3.72,6.49,6.49,0,0,0-1.49-3.53c-5.44-7.88-24.25-21.31-20.47-47.31,2.72-18.66,19-31.81,34.27-31l3.88.22c6.6.39,12.36,1.24,17.8,1.47,9.09.38,17.26-.93,26.93-9,3.27-2.73,5.89-5.09,10.32-5.84a13.53,13.53,0,0,1,10.57,1.74c7.78,5.16,8.87,17.67,9.27,26.82.23,5.22.86,17.88,1.07,21.49.49,8.29,2.67,9.46,7.09,10.88,2.48.82,4.78,1.43,8.17,2.38,10.27,2.89,16.33,5.82,20.22,9.57a12.79,12.79,0,0,1,3.69,7.23c1.21,8.84-6.86,19.75-28.24,29.67-36.32,16.86-72.85,11.24-78.14,10.64-15.67-2.11-24.59,18.14-15.2,32,17.61,26,95.18,15.55,117.71-16.6.54-.78.09-1.24-.57-.78-32.48,22.23-75.47,29.72-99.89,20.22-3.71-1.44-11.46-5-12.4-13,33.91,10.49,55.21.57,55.21.57s1.58-2.17-.43-2ZM123.4,98c13-15,29-28.13,43.41-35.48a.57.57,0,0,1,.78.2.55.55,0,0,1,0,.58,42.44,42.44,0,0,0-4,9.84.57.57,0,0,0,.43.7.57.57,0,0,0,.47-.09c8.93-6.09,24.48-12.61,38.1-13.45a.59.59,0,0,1,.64.55.61.61,0,0,1-.23.52,32.57,32.57,0,0,0-6,6,.58.58,0,0,0,.13.81.57.57,0,0,0,.33.11c9.57.07,23.07,3.43,31.88,8.36.59.33.17,1.48-.49,1.33-54.09-12.39-95.72,14.41-104.6,20.87a.58.58,0,0,1-.81-.18.57.57,0,0,1,0-.69Z"/></g></g></svg>