<svg xmlns="http://www.w3.org/2000/svg" viewBox="0 0 349.15 349.15"><defs><style>.cls-1{fill:#362a40;}</style></defs><g id="Layer_2" data-name="Layer 2"><g id="Layer_19" data-name="Layer 19"><path class="cls-1" d="M227.8,218.16c0,33.06-31,32.29-34.22,32.29H130.53V186.79h63.05C226.74,186.79,227.8,211.65,227.8,218.16Zm-39.08-57c.52,0,30,.78,30-28.3,0-12.09-2.74-27.95-30-27.95H130.53v56.25Zm160.43-103V291A58.35,58.35,0,0,1,291,349.15H58.19A58.35,58.35,0,0,1,0,291V58.19A58.35,58.35,0,0,1,58.19,0H291A58.35,58.35,0,0,1,349.15,58.19Zm-85.69,164.6c0-16.81-5.18-45.43-38.23-52.49v-.57c17.86-7.62,29.1-22,29.1-43.37,0-5.45,1.56-50.48-60.47-50.48h-99V279.55c99.93,0,109,1.31,127.5-4.45C233.46,271.65,263.46,261.08,263.46,222.79Z"/></g></g></svg>