<svg xmlns="http://www.w3.org/2000/svg" viewBox="0 0 465.49 349.15"><defs><style>.cls-1{fill:#362a40;}</style></defs><g id="Layer_2" data-name="Layer 2"><g id="Layer_9" data-name="Layer 9"><path class="cls-1" d="M400.74,200.68a95.56,95.56,0,0,0-42.19,9.82c-4.29-8.65-8.73-16.22-9.45-21.89-.88-6.62-1.82-10.55-.8-18.4s5.6-19,5.52-19.79-1-4.8-10.4-4.87S326,147.37,325,149.84a89.4,89.4,0,0,0-3.86,13.89c-1.67,8.51-18.75,38.92-28.43,54.77-3.2-6.18-5.89-11.63-6.47-16-.87-6.62-1.82-10.54-.8-18.4s5.6-19,5.53-19.78-1-4.8-10.4-4.88-17.45,1.82-18.4,4.29-2,8.3-3.85,13.9S233.7,233.85,227.74,247c-3.05,6.7-5.67,12.08-7.56,15.72-.29.58-.51.94-.66,1.23.22-.36.37-.73.37-.58-1.6,3.13-2.55,4.87-2.55,4.87v.08c-1.24,2.32-2.62,4.43-3.27,4.43-.44,0-1.38-6.11.22-14.47,3.41-17.6,11.49-45,11.41-45.9-.07-.51,1.53-5.23-5.31-7.78-6.61-2.4-9,1.6-9.6,1.6s-1,1.46-1,1.46,7.34-30.84-14.11-30.84c-13.38,0-32,14.69-41.15,28-5.75,3.13-18.18,9.89-31.28,17.09-5,2.77-10.18,5.6-15,8.29-.36-.36-.66-.72-1-1.09-26-27.78-74.09-47.42-72.06-84.73.73-13.6,5.46-49.32,92.43-92.66C198.81,16.23,255.8,26,265.61,47.65c14.11,30.91-30.46,88.45-104.49,96.74-28.21,3.13-43-7.78-46.75-11.86-3.85-4.29-4.44-4.51-5.89-3.71-2.4,1.31-.87,5.09,0,7.35,2.18,5.74,11.27,15.93,26.76,21,13.6,4.44,46.68,6.91,86.68-8.58,44.93-17.31,79.91-65.54,69.65-105.9-10.44-41-78.46-54.48-142.78-31.64C110.47,24.67,69,46.05,39.21,73.91,3.79,107.08-1.87,136,.46,148c8.28,42.84,67.33,70.77,91,91.43-1.17.66-2.26,1.24-3.28,1.82C76.3,247.16,31.28,270.73,20,295.6,7.29,323.82,22.12,344,31.86,346.81c30.4,8.43,61.52-6.77,78.24-31.72s14.69-57.53,7-72.37c-.07-.21-.21-.36-.29-.58,3.06-1.82,6.19-3.63,9.31-5.45,6-3.57,11.92-6.84,17.09-9.68-2.91,7.86-5,17.31-6.11,31-1.31,16,5.31,36.73,13.89,44.87,3.78,3.57,8.36,3.64,11.19,3.64,10,0,14.55-8.29,19.56-18.18,6.18-12.08,11.64-26.11,11.64-26.11s-6.84,38,11.86,38c6.83,0,13.66-8.8,16.72-13.31V287s.15-.3.51-.88c.73-1.09,1.09-1.74,1.09-1.74v-.22c2.77-4.73,8.81-15.57,17.89-33.46,11.78-23.13,23.05-52,23.05-52A145.91,145.91,0,0,0,269,217.41c2,6.91,6.33,14.48,9.74,21.82-2.76,3.78-4.43,6-4.43,6a.21.21,0,0,0,.07.14c-2.18,2.91-4.65,6-7.2,9.09-9.3,11.06-20.37,23.72-21.82,27.35-1.75,4.29-1.31,7.49,2,10,2.47,1.89,6.83,2.18,11.41,1.81a50.45,50.45,0,0,0,17.09-3.92,60.09,60.09,0,0,0,14.69-7.71c9.09-6.69,14.62-16.3,14.11-29-.29-7-2.55-14-5.31-20.51.8-1.17,1.67-2.4,2.47-3.64a387.18,387.18,0,0,0,25.52-44.09,147.33,147.33,0,0,0,4.51,18.77c1.75,5.89,5.16,12.36,8.29,18.69-13.53,11-21.89,23.71-24.8,32.07-5.38,15.5-1.16,22.48,6.76,24.08,3.57.73,8.66-1,12.44-2.55a57.74,57.74,0,0,0,15.71-8.07c9.09-6.69,17.88-16.07,17.3-28.8a54.13,54.13,0,0,0-3.93-17c11.42-4.8,26.25-7.42,45.16-5.24,40.5,4.73,48.43,30,46.9,40.59s-10,16.43-12.87,18.18-3.71,2.4-3.49,3.71c.36,1.89,1.67,1.82,4.07,1.38,3.34-.58,21.23-8.58,22-28.15,1.16-24.73-22.61-51.93-64.73-51.71ZM88.58,305.93c-13.38,14.62-32.14,20.15-40.21,15.49-8.65-5-5.23-26.55,11.27-42.13,10-9.45,23-18.18,31.56-23.56,2-1.17,4.8-2.91,8.29-5,.58-.36.87-.51.87-.51.66-.44,1.38-.8,2.11-1.24,6,22.12.22,41.61-13.89,57Zm97.72-66.48c-4.65,11.42-14.46,40.51-20.43,39-5.09-1.31-8.22-23.5-1-45.32,3.63-11,11.34-24.07,15.92-29.16,7.34-8.22,15.42-10.84,17.31-7.57,2.54,4.29-8.88,35.93-11.79,43.06ZM267,278c-2,1-3.78,1.67-4.66,1.16-.65-.36.8-1.74.8-1.74s10.11-10.84,14.11-15.79c2.33-2.9,5-6.32,7.93-10.11,0,.37.07.73.07,1.17-.1,13-12.6,21.82-18.27,25.31Zm62.24-14.18c-1.45-1-1.23-4.44,3.64-15.06a56.48,56.48,0,0,1,13.82-17.82,26.23,26.23,0,0,1,1.38,7.86c-.07,16.36-11.78,22.47-18.83,25Z"/></g></g></svg>