<svg xmlns="http://www.w3.org/2000/svg" viewBox="0 0 293.4 349.15"><defs><style>.cls-1{fill:#362a40;}</style></defs><g id="Layer_2" data-name="Layer 2"><g id="Layer_20" data-name="Layer 20"><path class="cls-1" d="M245.31,184.51c-.16-28.61,12.78-50.2,39-66.1-14.65-21-36.79-32.51-66-34.77-27.67-2.18-57.92,16.14-69,16.14-11.69,0-38.5-15.36-59.55-15.36C46.22,85.12,0,119.11,0,188.25q0,30.63,11.22,63.29c10,28.61,46,98.76,83.57,97.6,19.64-.47,33.51-14,59.08-14,24.79,0,37.65,14,59.56,14,37.88-.55,70.46-64.31,80-93-50.82-23.93-48.09-70.15-48.09-71.63Zm-44.12-128C222.47,31.26,220.52,8.26,219.9,0,201.11,1.09,179.36,12.78,167,27.2c-13.64,15.44-21.67,34.54-20,56.05C167.36,84.81,185.91,74.36,201.19,56.51Z"/></g></g></svg>