<svg xmlns="http://www.w3.org/2000/svg" viewBox="0 0 404.99 249.2"><defs><style>.cls-1{fill:#362a40;}</style></defs><g id="Layer_2" data-name="Layer 2"><g id="Layer_5" data-name="Layer 5"><path class="cls-1" d="M375.76,0H29.24A29.24,29.24,0,0,0,0,29.17V220A29.25,29.25,0,0,0,29.24,249.2H375.82A29.13,29.13,0,0,0,405,220V29.17A29.23,29.23,0,0,0,375.76,0ZM214.2,190.79H175.29V114.85l-38.92,48.67L97.45,114.85v75.94h-39V58.41H97.32l38.92,48.66,38.92-48.66h38.92V190.79Zm85.62,2L241.41,124.6h38.92V58.41h38.92V124.6h38.92Z"/></g></g></svg>