<svg xmlns="http://www.w3.org/2000/svg" viewBox="0 0 278.06 250.32"><defs><style>.cls-2{fill:#fff}</style></defs><g id="Layer_2" data-name="Layer 2"><g id="Layer_1-2" data-name="Layer 1"><path d="M234.62 232.35h41.13a2.1 2.1 0 012.17 2.18l.14 12.58a2.09 2.09 0 01-2.18 2.07h-41.13a2.08 2.08 0 01-2.17-2.07l-.14-12.58a2.11 2.11 0 012.18-2.18z" fill="#39b54a"/><path class="cls-2" d="M90.32 3.13A2.27 2.27 0 0192.49.91h13.75a2.27 2.27 0 012.18 2.22v77.34a2.27 2.27 0 01-2.18 2.21H92.49a2.27 2.27 0 01-2.17-2.21zm23.94 0a2.19 2.19 0 012.17-2.22h13.64a2.27 2.27 0 012.17 2.22v62.38h27.27a2.2 2.2 0 012.18 2.22v12.74a2.2 2.2 0 01-2.18 2.21h-43.08a2.19 2.19 0 01-2.17-2.21zM13 86.42a2.18 2.18 0 012-1.83h1.83a2.53 2.53 0 011.95 1.14l26.58 49.5h.23l26.58-49.5a2.53 2.53 0 012-1.14H76a2.18 2.18 0 012.06 1.83l13 77a2.1 2.1 0 01-2.18 2.52H75.3a2.32 2.32 0 01-2.17-1.83L68 128.7h-.23l-19.28 37.12a2.69 2.69 0 01-1.94 1.26h-2.07a2.5 2.5 0 01-1.94-1.26L23.17 128.7H23l-5.1 35.4a2.23 2.23 0 01-2.17 1.83H2.21A2.1 2.1 0 010 163.41z"/><path class="cls-2" d="M88.47 155.05l5.38-9.51c.92-1.49 3.1-1.26 3.9-.69.46.23 8.71 6.3 16.27 6.3 4.58 0 7.9-2.86 7.9-6.87 0-4.81-4-8.48-11.8-11.57-9.85-3.9-22.22-11.58-22.22-25.32 0-11.35 8.82-22.8 26.46-22.8 11.92 0 21.08 6.07 24.52 8.59 1.37.8 1.14 2.86.69 3.67l-5.85 8.82c-.8 1.26-2.86 2.29-3.89 1.49-1-.57-9.39-6.88-16.38-6.88-4.13 0-7.22 2.75-7.22 5.85 0 4.24 3.43 7.44 12.49 11.11s23.14 10.54 23.14 26.12c0 11.8-10.2 23.72-27 23.72-14.89 0-23.14-6.19-25.78-8.82-1.18-1.15-1.53-1.61-.61-3.21z"/><path class="cls-2" d="M141 87.91a2.26 2.26 0 012.17-2.18h13.64a2.18 2.18 0 012.19 2.18v28.87h32.77V87.91a2.18 2.18 0 012.23-2.18h13.63a2.26 2.26 0 012.18 2.18v75.84a2.25 2.25 0 01-2.18 2.18H194a2.18 2.18 0 01-2.18-2.18v-30.13H159v30.13a2.17 2.17 0 01-2.17 2.18H143.2a2.25 2.25 0 01-2.17-2.18zM0 171.16A2.25 2.25 0 012.18 169h14.09a2.18 2.18 0 012.18 2.18v46.4c0 8 5.95 14.43 14.09 14.43a14.13 14.13 0 0014.32-14.43v-46.4A2.18 2.18 0 0149 169h14.13a2.25 2.25 0 012.17 2.18v47.31c0 17.42-14.66 31.85-32.76 31.85S0 235.89 0 218.47zm71.14 0a2.18 2.18 0 012.18-2.16h34.25a24.91 24.91 0 0125 24.75c0 10.54-7 19-17 23l15.7 29.1a2.17 2.17 0 01-1.95 3.33H114.1a2.13 2.13 0 01-1.83-1L97 217.79h-7.9V247a2.25 2.25 0 01-2.1 2.18H73.32a2.18 2.18 0 01-2.18-2.18zm34.94 32.07c4.7 0 8.71-4.35 8.71-9.16a8.78 8.78 0 00-8.71-8.71h-17v17.87z"/><path class="cls-2" d="M130.71 238.29l5.39-9.51c.91-1.49 3.09-1.26 3.89-.68.46.23 8.71 6.3 16.27 6.3 4.58 0 7.9-2.87 7.9-6.88 0-4.81-4-8.47-11.8-11.57-9.85-3.89-22.22-11.57-22.22-25.32 0-11.34 8.82-22.8 26.46-22.8 11.92 0 21.08 6.08 24.52 8.6 1.38.8 1.15 2.86.69 3.66l-5.81 8.83c-.8 1.26-2.86 2.29-3.89 1.48-1-.57-9.39-6.87-16.38-6.87-4.13 0-7.22 2.75-7.22 5.84 0 4.24 3.44 7.45 12.49 11.12s23.1 10.51 23.1 26.12c0 11.8-10.2 23.71-27 23.71-14.89 0-23.14-6.18-25.78-8.82-1.18-1.14-1.53-1.6-.61-3.21z"/><path class="cls-2" d="M195.78 185.82H179.4a2.18 2.18 0 01-2.18-2.17v-12.49a2.18 2.18 0 012.18-2.16h50.86a2.17 2.17 0 012.18 2.18v12.49a2.17 2.17 0 01-2.18 2.17h-16.38V247a2.25 2.25 0 01-2.17 2.18H198a2.25 2.25 0 01-2.18-2.18zM78.05 80.66A2.18 2.18 0 0176 82.49h-1.84a2.51 2.51 0 01-2-1.15L45.63 31.85h-.23L18.82 81.34a2.51 2.51 0 01-1.95 1.15H15a2.18 2.18 0 01-2-1.83L0 3.67a2.1 2.1 0 012.21-2.52h13.52A2.31 2.31 0 0117.9 3l5.16 35.4h.23L42.54 1.26A2.66 2.66 0 0144.48 0h2.07a2.48 2.48 0 011.94 1.26l19.37 37.12h.22l5-35.4a2.22 2.22 0 012.22-1.83h13.52A2.1 2.1 0 0191 3.67z"/></g></g></svg>