<svg id="e0645b76-47b8-48f5-8d01-c2f128dd6b47" data-name="Layer 1" xmlns="http://www.w3.org/2000/svg" width="290.4mm" height="126.79mm" viewBox="0 0 823.19 359.41">
  <title>Ricky Foyle Logo</title>
  <polygon points="226.77 128.1 189.57 90.9 104.26 176.21 112.57 183.8 164.22 132.14 176.81 144.72 189.57 131.96 202.33 144.72 214.91 132.14 226.77 144 226.77 128.1" fill="#1d1d1b"/>
  <polygon points="161.02 230.94 65.55 135.47 28.35 172.68 28.35 188.43 41.78 175 53.72 186.94 65.55 175.11 77.38 186.94 89.33 175 145.27 230.94 161.02 230.94" fill="#1d1d1b"/>
  <path d="M155.91,439.37V694.49H411V439.37ZM396.85,680.31H170.08V453.54H396.85Z" transform="translate(-155.91 -439.37)" fill="#1d1d1b"/>
  <path d="M722.83,439.37V694.49H978V439.37ZM963.78,680.31H737V453.54H963.78Z" transform="translate(-155.91 -439.37)" fill="#1d1d1b"/>
  <path d="M439.37,439.37V694.49H694.49V439.37Zm241,240.94H453.54V453.54H680.32Z" transform="translate(-155.91 -439.37)" fill="#1d1d1b"/>
  <rect x="311.81" y="28.35" width="28.35" height="28.35" fill="#1d1d1b"/>
  <rect x="311.81" y="70.87" width="28.35" height="28.35" fill="#1d1d1b"/>
  <rect x="311.81" y="113.39" width="28.35" height="28.35" fill="#1d1d1b"/>
  <rect x="311.81" y="155.91" width="28.35" height="28.35" fill="#1d1d1b"/>
  <rect x="311.81" y="198.43" width="28.35" height="28.35" fill="#1d1d1b"/>
  <rect x="481.89" y="28.35" width="28.35" height="28.35" fill="#1d1d1b"/>
  <rect x="481.89" y="70.87" width="28.35" height="28.35" fill="#1d1d1b"/>
  <rect x="481.89" y="113.39" width="28.35" height="28.35" fill="#1d1d1b"/>
  <rect x="481.89" y="155.91" width="28.35" height="28.35" fill="#1d1d1b"/>
  <rect x="481.89" y="198.43" width="28.35" height="28.35" fill="#1d1d1b"/>
  <path d="M914.17,507.32H772.44v99.22h70.87v14.17H822.05v14.17h56.69V620.71H857.48V606.54h70.87V507.32Zm0,85H786.61V521.5H914.17Z" transform="translate(-155.91 -439.37)" fill="#1d1d1b"/>
  <g>
    <path d="M157.33,732.18h29.18c8.23,0,14.68,2.44,18.89,6.55a19.82,19.82,0,0,1,5.43,14.13V753c0,10.76-6.46,17.21-15.62,19.83l17.68,24.79H199.32l-16.09-22.82h-14.4v22.82h-11.5Zm28.34,32.46c8.23,0,13.47-4.3,13.47-10.94v-.19c0-7-5-10.85-13.57-10.85H168.83v22Z" transform="translate(-155.91 -439.37)" fill="#1d1d1b"/>
    <path d="M244.32,732.18h11.51v65.48H244.32Z" transform="translate(-155.91 -439.37)" fill="#1d1d1b"/>
    <path d="M289.13,765.11v-.19c0-18.61,13.93-33.86,33.76-33.86,12.07,0,19.37,4.21,25.63,10.2l-7.39,8.51c-5.24-4.87-10.85-8.14-18.33-8.14-12.53,0-21.61,10.29-21.61,23.1v.19c0,12.82,9.08,23.29,21.61,23.29,8,0,13.19-3.27,18.8-8.51l7.39,7.48c-6.83,7.11-14.31,11.6-26.56,11.6C303.34,798.78,289.13,783.91,289.13,765.11Z" transform="translate(-155.91 -439.37)" fill="#1d1d1b"/>
    <path d="M379.77,732.18h11.5v32.93l31.15-32.93h14.13l-27.22,28.16,28.43,37.32H423.82L401.47,768.2l-10.2,10.47v19h-11.5Z" transform="translate(-155.91 -439.37)" fill="#1d1d1b"/>
    <path d="M482.48,771.84l-26-39.66H470l18.33,29,18.52-29h13.19l-26,39.38v26.1h-11.6Z" transform="translate(-155.91 -439.37)" fill="#1d1d1b"/>
    <path d="M595.67,732.18H644.4v10.48H607.17v17.87h33V771h-33v26.66h-11.5Z" transform="translate(-155.91 -439.37)" fill="#1d1d1b"/>
    <path d="M672.28,765.11v-.19c0-18.42,14.21-33.86,34.33-33.86s34.14,15.25,34.14,33.67v.19c0,18.43-14.22,33.86-34.33,33.86S672.28,783.54,672.28,765.11Zm56.4,0v-.19c0-12.72-9.26-23.29-22.26-23.29s-22.08,10.38-22.08,23.1v.19c0,12.72,9.26,23.29,22.27,23.29S728.68,777.83,728.68,765.11Z" transform="translate(-155.91 -439.37)" fill="#1d1d1b"/>
    <path d="M787.05,771.84l-26-39.66h13.56l18.34,29,18.52-29h13.18l-26,39.38v26.1h-11.6Z" transform="translate(-155.91 -439.37)" fill="#1d1d1b"/>
    <path d="M853.47,732.18H865v55H899.4v10.48H853.47Z" transform="translate(-155.91 -439.37)" fill="#1d1d1b"/>
    <path d="M930.08,732.18h48.55v10.29h-37v17h32.84v10.29H941.58v17.58h37.51v10.29h-49Z" transform="translate(-155.91 -439.37)" fill="#1d1d1b"/>
  </g>
</svg>
